<?xml version="1.0" encoding="iso-8859-1"?>
<!-- Generator: Adobe Illustrator 19.0.0, SVG Export Plug-In . SVG Version: 6.00 Build 0)  -->
<svg version="1.1" id="Layer_1" xmlns="http://www.w3.org/2000/svg" xmlns:xlink="http://www.w3.org/1999/xlink" x="0px" y="0px"
	 viewBox="0 0 512 512" style="enable-background:new 0 0 512 512;" xml:space="preserve">
<g>
	<circle style="fill:#FFFFFF;" cx="192" cy="192" r="144"/>
	<path style="fill:#FFFFFF;" d="M232,176c0,22.064-17.944,40-40,40s-40-17.936-40-40s17.944-40,40-40S232,153.936,232,176z"/>
</g>
<path style="fill:#DCDDDE;" d="M192,136v80c22.088,0,40-17.912,40-40S214.088,136,192,136z"/>
<path style="fill:#F37053;" d="M264,272v44.64C242.8,328.96,218.24,336,192,336s-50.8-7.04-72-19.36V272c0-17.68,14.32-32,32-32h80
	C249.68,240,264,254.32,264,272z"/>
<polygon style="fill:#53B7E8;" points="376,344 344,376 352,400 456,504 488,504 504,488 504,456 400,352 "/>
<circle style="fill:#67C18C;" cx="224" cy="456" r="48"/>
<circle style="fill:#F37053;" cx="456" cy="224" r="48"/>
<g>
	<path style="fill:#0C3847;" d="M192,96h8V80h-8c-61.76,0-112,50.24-112,112v8h16v-8C96,139.064,139.064,96,192,96z"/>
	<path style="fill:#0C3847;" d="M373.84,334.84L360,348.688l-55.184-55.184C329.088,266.56,344,231.032,344,192
		c0-83.816-68.184-152-152-152S40,108.184,40,192s68.184,152,152,152c39.032,0,74.56-14.912,101.504-39.184L348.688,360
		l-13.84,13.84l10.16,30.488L452.688,512h38.624L512,491.312v-38.624l-107.68-107.68L373.84,334.84z M56,192
		c0-74.992,61.008-136,136-136s136,61.008,136,136c0,45.072-22.128,84.976-56,109.736V272c0-22.056-17.944-40-40-40h-32h-16h-32
		c-22.056,0-40,17.944-40,40v29.736C78.128,276.976,56,237.072,56,192z M128,311.936V272c0-13.232,10.768-24,24-24h32v48h16v-48h32
		c13.232,0,24,10.768,24,24v39.936C236.912,322.16,215.128,328,192,328S147.088,322.16,128,311.936z M378.16,353.16l13.032,4.344
		L357.496,391.2l-4.344-13.024L378.16,353.16z M496,484.688L484.688,496h-25.376l-92-92L404,367.312l92,92L496,484.688L496,484.688z
		"/>
	<path style="fill:#0C3847;" d="M144,176c0,26.472,21.528,48,48,48s48-21.528,48-48s-21.528-48-48-48S144,149.528,144,176z M224,176
		c0,17.648-14.352,32-32,32s-32-14.352-32-32s14.352-32,32-32S224,158.352,224,176z"/>
	<path style="fill:#0C3847;" d="M304,364.688l-46.528,46.528C248.12,404.208,236.56,400,224,400c-30.88,0-56,25.128-56,56
		s25.12,56,56,56s56-25.128,56-56c0-12.56-4.208-24.12-11.216-33.472L315.312,376L304,364.688z M224,496c-22.056,0-40-17.944-40-40
		s17.944-40,40-40s40,17.944,40,40S246.056,496,224,496z"/>
	<path style="fill:#0C3847;" d="M364.688,304L376,315.312l46.528-46.528C431.88,275.792,443.44,280,456,280c30.88,0,56-25.128,56-56
		s-25.12-56-56-56s-56,25.128-56,56c0,12.56,4.208,24.12,11.216,33.472L364.688,304z M456,184c22.056,0,40,17.944,40,40
		s-17.944,40-40,40s-40-17.944-40-40S433.944,184,456,184z"/>
	<rect x="184" y="368" style="fill:#0C3847;" width="16" height="16"/>
	<rect x="184" style="fill:#0C3847;" width="16" height="16"/>
	
		<rect x="152.05" y="2.824" transform="matrix(-0.1736 -0.9848 0.9848 -0.1736 177.1751 170.3231)" style="fill:#0C3847;" width="16" height="16"/>
	
		<rect x="121.051" y="11.07" transform="matrix(-0.342 -0.9397 0.9397 -0.342 155.2668 146.8609)" style="fill:#0C3847;" width="16" height="16"/>
	
		<rect x="92.007" y="24.644" transform="matrix(-0.5 -0.866 0.866 -0.5 121.741 135.5742)" style="fill:#0C3847;" width="16" height="16"/>
	
		<rect x="65.73" y="43.05" transform="matrix(-0.6428 -0.766 0.766 -0.6428 82.0194 140.343)" style="fill:#0C3847;" width="16" height="16"/>
	
		<rect x="43.047" y="65.722" transform="matrix(-0.766 -0.6428 0.6428 -0.766 42.7597 163.0068)" style="fill:#0C3847;" width="16" height="16"/>
	
		<rect x="24.649" y="91.996" transform="matrix(-0.866 -0.5 0.5 -0.866 10.9249 202.9194)" style="fill:#0C3847;" width="16" height="16"/>
	
		<rect x="11.109" y="121.046" transform="matrix(-0.9397 -0.342 0.342 -0.9397 -7.0682 256.8452)" style="fill:#0C3847;" width="16" height="16"/>
	
		<rect x="2.782" y="152.081" transform="matrix(-0.9848 -0.1737 0.1737 -0.9848 -6.4059 319.6021)" style="fill:#0C3847;" width="16" height="16"/>
	<rect x="368" y="184" style="fill:#0C3847;" width="16" height="16"/>
	<rect y="184" style="fill:#0C3847;" width="16" height="16"/>
	
		<rect x="365.235" y="152.006" transform="matrix(0.9848 -0.1736 0.1736 0.9848 -22.1102 67.2242)" style="fill:#0C3847;" width="16" height="16"/>
	
		<rect x="2.786" y="215.955" transform="matrix(-0.9848 0.1736 -0.1736 -0.9848 60.2874 442.6358)" style="fill:#0C3847;" width="16" height="16"/>
	
		<rect x="356.888" y="121.09" transform="matrix(0.9397 -0.342 0.342 0.9397 -22.1461 132.5759)" style="fill:#0C3847;" width="16" height="16"/>
	
		<rect x="11.09" y="246.929" transform="matrix(-0.9397 0.342 -0.342 -0.9397 124.2144 487.957)" style="fill:#0C3847;" width="16" height="16"/>
	
		<rect x="343.329" y="92.004" transform="matrix(0.866 -0.5 0.5 0.866 -2.9317 189.0671)" style="fill:#0C3847;" width="16" height="16"/>
	
		<rect x="24.649" y="275.996" transform="matrix(-0.866 0.5 -0.5 -0.866 202.9251 513.617)" style="fill:#0C3847;" width="16" height="16"/>
	
		<rect x="324.954" y="65.714" transform="matrix(-0.6428 -0.766 0.766 -0.6428 490.5162 376.1472)" style="fill:#0C3847;" width="16" height="16"/>
	
		<rect x="43.031" y="302.255" transform="matrix(0.6428 0.766 -0.766 0.6428 255.8884 71.7271)" style="fill:#0C3847;" width="16" height="16"/>
	
		<rect x="302.263" y="43.042" transform="matrix(-0.766 -0.6428 0.6428 -0.766 515.1197 289.5826)" style="fill:#0C3847;" width="16" height="16"/>
	
		<rect x="65.738" y="324.927" transform="matrix(0.766 0.6428 -0.6428 0.766 231.2639 30.4982)" style="fill:#0C3847;" width="16" height="16"/>
	
		<rect x="275.996" y="24.649" transform="matrix(-0.866 -0.5 0.5 -0.866 513.617 202.9251)" style="fill:#0C3847;" width="16" height="16"/>
	
		<rect x="92.004" y="343.329" transform="matrix(0.866 0.5 -0.5 0.866 189.0671 -2.9317)" style="fill:#0C3847;" width="16" height="16"/>
	
		<rect x="246.929" y="11.09" transform="matrix(-0.9397 -0.342 0.342 -0.9397 487.957 124.2144)" style="fill:#0C3847;" width="16" height="16"/>
	
		<rect x="121.074" y="356.888" transform="matrix(0.9397 0.342 -0.342 0.9397 132.5749 -22.1406)" style="fill:#0C3847;" width="16" height="16"/>
	
		<rect x="215.955" y="2.786" transform="matrix(-0.9848 -0.1736 0.1736 -0.9848 442.6358 60.2874)" style="fill:#0C3847;" width="16" height="16"/>
	
		<rect x="152.045" y="365.142" transform="matrix(-0.1736 0.9848 -0.9848 -0.1736 555.3057 280.3057)" style="fill:#0C3847;" width="16" height="16"/>
</g>
<g>
	<polygon style="fill:#FFFFFF;" points="232,432 216,432 216,448 200,448 200,464 216,464 216,480 232,480 232,464 248,464 248,448 
		232,448 	"/>
	<rect x="432" y="216" style="fill:#FFFFFF;" width="48" height="16"/>
</g>
<g>
</g>
<g>
</g>
<g>
</g>
<g>
</g>
<g>
</g>
<g>
</g>
<g>
</g>
<g>
</g>
<g>
</g>
<g>
</g>
<g>
</g>
<g>
</g>
<g>
</g>
<g>
</g>
<g>
</g>
</svg>
