<?xml version="1.0" encoding="iso-8859-1"?>
<!-- Generator: Adobe Illustrator 19.0.0, SVG Export Plug-In . SVG Version: 6.00 Build 0)  -->
<svg version="1.1" id="Layer_1" xmlns="http://www.w3.org/2000/svg" xmlns:xlink="http://www.w3.org/1999/xlink" x="0px" y="0px"
	 viewBox="0 0 512 512" style="enable-background:new 0 0 512 512;" xml:space="preserve">
<path style="fill:#FFFFFF;" d="M392,296v0.408c-50.96,3.904-91.688,44.632-95.592,95.592H296v16h0.408
	c0.064,0.88,0.232,1.728,0.32,2.6c-13.024,3.448-26.64,5.4-40.728,5.4c-88.224,0-160-71.776-160-160S167.776,96,256,96
	s160,71.776,160,160c0,14.088-1.952,27.704-5.4,40.728c-0.872-0.088-1.72-0.248-2.6-0.32V296H392z"/>
<path style="fill:#DCDDDE;" d="M375.008,374.792c65.608-65.608,65.608-171.976,0-237.584L137.416,374.792
	C203.024,440.4,309.4,440.4,375.008,374.792z"/>
<path style="fill:#FFD768;" d="M256.208,56c-110.456,0-200,89.544-200,200s89.544,200,200,200s200-89.544,200-200
	S366.664,56,256.208,56z M256.208,424c-92.784,0-168-75.216-168-168s75.216-168,168-168s168,75.216,168,168S348.992,424,256.208,424
	z"/>
<polygon style="fill:#53B7E8;" points="274.248,274.04 202.16,310.048 238.168,237.96 "/>
<polygon style="fill:#F37053;" points="310.32,201.888 274.248,274.04 238.168,237.96 "/>
<circle style="fill:#53B7E8;stroke:#0C3847;stroke-width:2;stroke-linecap:round;stroke-miterlimit:10;" cx="400.24" cy="400" r="96"/>
<g>
	<path style="fill:#67C18C;" d="M496.208,400c0,17.52-4.64,33.92-12.8,48h-41.68c4.16-14.08,6.48-30.48,6.48-48
		c0-53.04-21.52-96-48-96C453.248,304,496.208,346.96,496.208,400z"/>
	<path style="fill:#67C18C;" d="M352.208,400h-48c0,53.04,42.96,96,96,96C373.728,496,352.208,453.04,352.208,400z"/>
</g>
<g>
	<rect x="248" y="496" style="fill:#0C3847;" width="16" height="16"/>
	<rect x="248" style="fill:#0C3847;" width="16" height="16"/>
	
		<rect x="291.083" y="492.264" transform="matrix(0.1736 0.9848 -0.9848 0.1736 739.8289 118.8749)" style="fill:#0C3847;" width="16" height="16"/>
	
		<rect x="204.929" y="3.766" transform="matrix(-0.1736 -0.9848 0.9848 -0.1736 238.3059 223.5044)" style="fill:#0C3847;" width="16" height="16"/>
	
		<rect x="163.175" y="14.954" transform="matrix(-0.342 -0.9397 0.9397 -0.342 208.1461 191.6576)" style="fill:#0C3847;" width="16" height="16"/>
	
		<rect x="124.004" y="33.22" transform="matrix(-0.5 -0.866 0.866 -0.5 162.3102 176.1484)" style="fill:#0C3847;" width="16" height="16"/>
	
		<rect x="88.575" y="57.997" transform="matrix(-0.6428 -0.766 0.766 -0.6428 108.0989 182.3992)" style="fill:#0C3847;" width="16" height="16"/>
	
		<rect x="58.034" y="88.565" transform="matrix(-0.766 -0.6428 0.6428 -0.766 54.543 212.9836)" style="fill:#0C3847;" width="16" height="16"/>
	
		<rect x="33.228" y="123.996" transform="matrix(-0.866 -0.5 0.5 -0.866 10.9327 266.9215)" style="fill:#0C3847;" width="16" height="16"/>
	
		<rect x="14.961" y="163.178" transform="matrix(-0.9397 -0.342 0.342 -0.9397 -14.0049 339.8875)" style="fill:#0C3847;" width="16" height="16"/>
	
		<rect x="492.237" y="291.144" transform="matrix(0.9848 0.1736 -0.1736 0.9848 59.5279 -82.3003)" style="fill:#0C3847;" width="16" height="16"/>
	
		<rect x="3.776" y="204.934" transform="matrix(-0.9848 -0.1736 0.1736 -0.9848 -13.5939 424.6796)" style="fill:#0C3847;" width="16" height="16"/>
	<rect x="496" y="248" style="fill:#0C3847;" width="16" height="16"/>
	<rect y="248" style="fill:#0C3847;" width="16" height="16"/>
	
		<rect x="492.238" y="204.91" transform="matrix(0.9848 -0.1736 0.1736 0.9848 -29.3661 90.0756)" style="fill:#0C3847;" width="16" height="16"/>
	
		<rect x="3.751" y="291.036" transform="matrix(-0.9848 0.1736 -0.1736 -0.9848 75.2359 591.4908)" style="fill:#0C3847;" width="16" height="16"/>
	
		<rect x="481.027" y="163.166" transform="matrix(0.9397 -0.342 0.342 0.9397 -29.0503 177.5685)" style="fill:#0C3847;" width="16" height="16"/>
	
		<rect x="14.953" y="332.82" transform="matrix(-0.9397 0.342 -0.342 -0.9397 161.083 653.2385)" style="fill:#0C3847;" width="16" height="16"/>
	
		<rect x="462.78" y="123.988" transform="matrix(-0.5 -0.866 0.866 -0.5 591.8711 605.6879)" style="fill:#0C3847;" width="16" height="16"/>
	
		<rect x="33.22" y="371.98" transform="matrix(0.5 0.866 -0.866 0.5 349.6795 154.2885)" style="fill:#0C3847;" width="16" height="16"/>
	
		<rect x="437.989" y="88.567" transform="matrix(-0.6428 -0.766 0.766 -0.6428 658.7054 500.2769)" style="fill:#0C3847;" width="16" height="16"/>
	
		<rect x="58.002" y="407.442" transform="matrix(0.6428 0.766 -0.766 0.6428 341.8113 97.8296)" style="fill:#0C3847;" width="16" height="16"/>
	
		<rect x="407.386" y="58.023" transform="matrix(-0.766 -0.6428 0.6428 -0.766 691.14 383.6145)" style="fill:#0C3847;" width="16" height="16"/>
	
		<rect x="88.613" y="437.994" transform="matrix(0.766 0.6428 -0.6428 0.766 309.2975 42.2495)" style="fill:#0C3847;" width="16" height="16"/>
	
		<rect x="371.988" y="33.22" transform="matrix(-0.866 -0.5 0.5 -0.866 688.4544 266.9155)" style="fill:#0C3847;" width="16" height="16"/>
	
		<rect x="124.004" y="462.788" transform="matrix(0.866 0.5 -0.5 0.866 253.0852 -2.9268)" style="fill:#0C3847;" width="16" height="16"/>
	
		<rect x="332.82" y="14.953" transform="matrix(-0.9397 -0.342 0.342 -0.9397 653.2385 161.083)" style="fill:#0C3847;" width="16" height="16"/>
	
		<rect x="163.174" y="481.027" transform="matrix(0.9397 0.342 -0.342 0.9397 177.569 -29.053)" style="fill:#0C3847;" width="16" height="16"/>
	
		<rect x="291.036" y="3.751" transform="matrix(-0.9848 -0.1736 0.1736 -0.9848 591.4908 75.2359)" style="fill:#0C3847;" width="16" height="16"/>
	
		<rect x="204.918" y="492.238" transform="matrix(0.9848 0.1736 -0.1736 0.9848 90.0757 -29.3675)" style="fill:#0C3847;" width="16" height="16"/>
	<path style="fill:#0C3847;" d="M345.888,166.112L264,207.056V128h-16v87.056l-14.416,7.208L208,196.688L196.688,208l25.584,25.584
		L215.056,248H128v16h79.056l-40.944,81.888L248,304.944V384h16v-87.056l14.416-7.208L304,315.312L315.312,304l-25.584-25.584
		L296.944,264H384v-16h-79.056L345.888,166.112z M274.04,274.04l-72.152,36.072l36.072-72.152l72.152-36.072L274.04,274.04z"/>
	<rect x="248" y="248" style="fill:#0C3847;" width="16" height="16"/>
	<path style="fill:#0C3847;" d="M490.832,349.984l2.992,1.088l5.472-15.032l-15.032-5.472l-2.16,5.92
		c-7.28-9.368-16.128-17.456-26.144-23.888c5.12-18.024,8.04-36.96,8.04-56.6c0-114.696-93.312-208-208-208S48,141.304,48,256
		s93.312,208,208,208c19.64,0,38.576-2.912,56.6-8.04c6.432,10.016,14.528,18.864,23.888,26.144l-5.92,2.152l5.472,15.032
		l15.032-5.472l-1.088-2.992c12.648,7.016,26.824,11.592,42.016,12.76V504h16v-0.408c50.96-3.904,91.688-44.632,95.592-95.592H504
		v-16h-0.408C502.432,376.816,497.848,362.632,490.832,349.984z M467.832,344h-20.448c-3.096-9.152-6.912-17.344-11.368-24.208
		C448.384,325.368,459.28,333.664,467.832,344z M435.352,360c2.36,9.6,3.944,20.328,4.448,32H408v-32H435.352z M408,344v-29.864
		c8.296,4.224,16.368,14.72,22.336,29.864H408z M256,448c-105.864,0-192-86.136-192-192S150.136,64,256,64s192,86.136,192,192
		c0,16.896-2.32,33.24-6.44,48.856c-4.872-2.136-9.904-3.976-15.136-5.352C429.992,285.576,432,271.032,432,256
		c0-97.048-78.952-176-176-176S80,158.952,80,256s78.952,176,176,176c15.032,0,29.576-2.008,43.512-5.576
		c1.376,5.232,3.216,10.264,5.352,15.136C289.24,445.68,272.896,448,256,448z M321.712,440c-5.008-9.768-8.272-20.56-9.312-32
		h31.808c0.448,11.304,1.784,22.064,3.96,32H321.712z M348.168,360c-2.168,9.936-3.512,20.696-3.96,32H312.4
		c1.04-11.44,4.296-22.232,9.312-32H348.168z M332.168,344c8.552-10.336,19.44-18.632,31.816-24.208
		c-4.456,6.864-8.272,15.056-11.368,24.208H332.168z M332.168,456h20.448c3.096,9.152,6.912,17.344,11.368,24.208
		C351.616,474.632,340.72,466.336,332.168,456z M392,485.864c-8.296-4.224-16.368-14.72-22.336-29.864H392V485.864z M392,440
		h-27.352c-2.36-9.6-3.944-20.328-4.448-32H392V440z M392,392h-31.8c0.496-11.672,2.088-22.4,4.448-32H392V392z M392,344h-22.336
		c5.968-15.144,14.04-25.64,22.336-29.864V344z M392,296v0.408c-50.96,3.904-91.688,44.632-95.592,95.592H296v16h0.408
		c0.064,0.88,0.232,1.728,0.32,2.6c-13.024,3.448-26.64,5.4-40.728,5.4c-88.224,0-160-71.776-160-160S167.776,96,256,96
		s160,71.776,160,160c0,14.088-1.952,27.704-5.4,40.728c-0.872-0.088-1.72-0.248-2.6-0.32V296H392z M408,485.864V456h22.336
		C424.368,471.144,416.296,481.64,408,485.864z M408,440v-32h31.8c-0.496,11.672-2.088,22.4-4.448,32H408z M436.016,480.208
		c4.456-6.864,8.272-15.056,11.368-24.208h20.448C459.28,466.336,448.384,474.632,436.016,480.208z M478.288,440h-26.456
		c2.168-9.936,3.512-20.696,3.96-32H487.6C486.56,419.44,483.296,430.232,478.288,440z M455.792,392
		c-0.448-11.304-1.784-22.064-3.96-32h26.456c5.008,9.768,8.272,20.56,9.312,32H455.792z"/>
</g>
<g>
</g>
<g>
</g>
<g>
</g>
<g>
</g>
<g>
</g>
<g>
</g>
<g>
</g>
<g>
</g>
<g>
</g>
<g>
</g>
<g>
</g>
<g>
</g>
<g>
</g>
<g>
</g>
<g>
</g>
</svg>
