<?xml version="1.0" encoding="iso-8859-1"?>
<!-- Generator: Adobe Illustrator 19.0.0, SVG Export Plug-In . SVG Version: 6.00 Build 0)  -->
<svg version="1.1" id="Layer_1" xmlns="http://www.w3.org/2000/svg" xmlns:xlink="http://www.w3.org/1999/xlink" x="0px" y="0px"
	 viewBox="0 0 512 512" style="enable-background:new 0 0 512 512;" xml:space="preserve">
<g>
	<path style="fill:#FFFFFF;" d="M368,464c0,8.824-7.176,16-16,16H144c-8.824,0-16-7.176-16-16v-64h150.24
		c4.392,4.872,10.696,8,17.76,8h72V464z"/>
	<path style="fill:#FFFFFF;" d="M128,48c0-8.824,7.176-16,16-16h208c8.824,0,16,7.176,16,16v40H128V48z"/>
</g>
<path style="fill:#DCDDDE;" d="M352,24H248v464h104c13.256,0,24-10.744,24-24V48C376,34.744,365.256,24,352,24z"/>
<rect x="120" y="96" style="fill:#FFFFFF;" width="256" height="296"/>
<rect x="8" y="128" style="fill:#67C18C;" width="240" height="128"/>
<path style="fill:#53B7E8;" d="M504,272v112c0,8.84-7.16,16-16,16H296c-8.84,0-16-7.16-16-16V272c0-8.84,7.16-16,16-16h192
	C496.84,256,504,263.16,504,272z"/>
<g>
	<rect x="440" y="208" style="fill:#0C3847;" width="16" height="16"/>
	<rect x="440" y="176" style="fill:#0C3847;" width="16" height="16"/>
	<rect x="440" y="144" style="fill:#0C3847;" width="16" height="16"/>
	<rect x="440" y="112" style="fill:#0C3847;" width="16" height="16"/>
	<rect x="408" y="112" style="fill:#0C3847;" width="16" height="16"/>
	<rect x="40" y="384" style="fill:#0C3847;" width="16" height="16"/>
	<rect x="72" y="384" style="fill:#0C3847;" width="16" height="16"/>
	<rect x="40" y="352" style="fill:#0C3847;" width="16" height="16"/>
	<rect x="40" y="320" style="fill:#0C3847;" width="16" height="16"/>
	<rect x="40" y="288" style="fill:#0C3847;" width="16" height="16"/>
	<path style="fill:#0C3847;" d="M248,408c-17.648,0-32,14.352-32,32s14.352,32,32,32s32-14.352,32-32S265.648,408,248,408z M248,456
		c-8.824,0-16-7.176-16-16s7.176-16,16-16s16,7.176,16,16S256.824,456,248,456z"/>
	<rect x="208" y="56" style="fill:#0C3847;" width="80" height="16"/>
	<path style="fill:#0C3847;" d="M488,248H384V104V88V48c0-17.648-14.352-32-32-32H144c-17.648,0-32,14.352-32,32v40v16v16H0v144h112
		v120v16v64c0,17.648,14.352,32,32,32h208c17.648,0,32-14.352,32-32v-56h104c13.232,0,24-10.768,24-24V272
		C512,258.768,501.232,248,488,248z M496,272v16H288v-16c0-4.416,3.592-8,8-8h192C492.408,264,496,267.584,496,272z M128,48
		c0-8.824,7.176-16,16-16h208c8.824,0,16,7.176,16,16v40H128V48z M240,151.312c-6.208-3.04-12.072-8.92-15.272-15.312H240V151.312z
		 M207.48,136l1.016,2.76c4.712,12.832,16.32,24.408,28.864,28.8l2.64,0.912v47l-2.76,1.016c-12.84,4.72-24.408,16.32-28.792,28.864
		l-0.92,2.648H48.52l-1.016-2.76c-4.712-12.832-16.32-24.408-28.864-28.8L16,215.528v-47l2.76-1.016
		c12.84-4.72,24.408-16.32,28.792-28.864l0.92-2.648H207.48z M240,232.728V248h-15.312C227.728,241.792,233.608,235.928,240,232.728
		z M31.312,136c-3.04,6.208-8.92,12.072-15.312,15.272V136H31.312z M16,232.688c6.208,3.04,12.072,8.92,15.272,15.312H16V232.688z
		 M256,264V120H128v-16h240v144h-72c-13.232,0-24,10.768-24,24v112H128V264H256z M368,464c0,8.824-7.176,16-16,16H144
		c-8.824,0-16-7.176-16-16v-64h150.24c4.392,4.872,10.696,8,17.76,8h72V464z M488,392H296c-4.408,0-8-3.584-8-8v-64h208v64
		C496,388.416,492.408,392,488,392z"/>
</g>
<g>
	<rect x="184" y="184" style="fill:#FFFFFF;" width="16" height="16"/>
	<rect x="56" y="184" style="fill:#FFFFFF;" width="16" height="16"/>
</g>
<path style="fill:#0C3847;" d="M128,232c22.056,0,40-17.944,40-40s-17.944-40-40-40s-40,17.944-40,40S105.944,232,128,232z M128,168
	c13.232,0,24,10.768,24,24s-10.768,24-24,24s-24-10.768-24-24S114.768,168,128,168z"/>
<g>
	<rect x="304" y="360" style="fill:#FFFFFF;" width="64" height="16"/>
	<rect x="384" y="360" style="fill:#FFFFFF;" width="32" height="16"/>
	
		<circle style="fill:#FFFFFF;stroke:#0C3847;stroke-width:2;stroke-linecap:round;stroke-miterlimit:10;" cx="248" cy="440" r="24"/>
	<circle style="fill:#FFFFFF;" cx="128" cy="192" r="24"/>
</g>
<g>
</g>
<g>
</g>
<g>
</g>
<g>
</g>
<g>
</g>
<g>
</g>
<g>
</g>
<g>
</g>
<g>
</g>
<g>
</g>
<g>
</g>
<g>
</g>
<g>
</g>
<g>
</g>
<g>
</g>
</svg>
