<?xml version="1.0" encoding="iso-8859-1"?>
<!-- Generator: Adobe Illustrator 19.0.0, SVG Export Plug-In . SVG Version: 6.00 Build 0)  -->
<svg version="1.1" id="Layer_1" xmlns="http://www.w3.org/2000/svg" xmlns:xlink="http://www.w3.org/1999/xlink" x="0px" y="0px"
	 viewBox="0 0 512 512" style="enable-background:new 0 0 512 512;" xml:space="preserve">
<g>
	<rect x="216" y="16" style="fill:#FFFFFF;" width="32" height="16"/>
	<polygon style="fill:#FFFFFF;" points="200,48 264,48 440,48 440,64 432,64 144,64 144,48 	"/>
	<polygon style="fill:#FFFFFF;" points="264,368 240,368 224,368 200,368 200,352 264,352 	"/>
	<path style="fill:#FFFFFF;" d="M280,336h-96H48V96h53.336L144,128V80h272v128h-64v10.864c-5.016-1.792-10.376-2.864-16-2.864
		c-26.472,0-48,21.528-48,48s21.528,48,48,48c5.632,0,10.984-1.08,16-2.88V336H280z"/>
	<path style="fill:#FFFFFF;" d="M496,408c0,8.824-7.176,16-16,16s-16-7.176-16-16v-8v-16h-96V272v-16v-32h128V408z"/>
</g>
<polygon style="fill:#67C18C;" points="256,120 256,208 88,208 120,176 160,176 184,144 216,144 "/>
<polygon style="fill:#0C3847;" points="99.312,200 115.312,184 156,184 180,152 218.664,152 259.2,121.6 249.6,108.8 213.336,136 
	172,136 148,168 108.688,168 88,188.688 88,104 72,104 72,216 264,216 264,200 "/>
<g>
	<polygon style="fill:#53B7E8;" points="136,112 104,88 8,88 8,8 136,8 	"/>
	<path style="fill:#53B7E8;" d="M456,392v16c0,13.256,10.736,24,24,24H336c-13.264,0-24-10.736-24-24v-16H456z"/>
</g>
<path style="fill:#F37053;" d="M360,232.184c-6.704-5.064-14.952-8.184-24-8.184c-22.088,0-40,17.912-40,40s17.912,40,40,40
	c9.048,0,17.296-3.12,24-8.184V232.184z"/>
<g>
	<rect x="232" y="16" style="fill:#DCDDDE;" width="16" height="16"/>
	<rect x="232" y="48" style="fill:#DCDDDE;" width="208" height="16"/>
	<rect x="232" y="352" style="fill:#DCDDDE;" width="32" height="16"/>
</g>
<g>
	<rect x="72" y="232" style="fill:#0C3847;" width="16" height="16"/>
	<rect x="104" y="232" style="fill:#0C3847;" width="16" height="16"/>
	<rect x="296" y="112" style="fill:#0C3847;" width="16" height="16"/>
	<rect x="328" y="112" style="fill:#0C3847;" width="64" height="16"/>
	<rect x="296" y="144" style="fill:#0C3847;" width="16" height="16"/>
	<rect x="328" y="144" style="fill:#0C3847;" width="64" height="16"/>
	<rect x="296" y="176" style="fill:#0C3847;" width="16" height="16"/>
	<rect x="328" y="176" style="fill:#0C3847;" width="64" height="16"/>
	<rect x="136" y="232" style="fill:#0C3847;" width="16" height="16"/>
	<rect x="32" y="40" style="fill:#0C3847;" width="16" height="16"/>
	<rect x="64" y="40" style="fill:#0C3847;" width="16" height="16"/>
	<rect x="96" y="40" style="fill:#0C3847;" width="16" height="16"/>
	<rect x="72" y="264" style="fill:#0C3847;" width="176" height="16"/>
	<rect x="72" y="296" style="fill:#0C3847;" width="128" height="16"/>
	<rect x="424" y="248" style="fill:#0C3847;" width="16" height="16"/>
	<rect x="392" y="248" style="fill:#0C3847;" width="16" height="16"/>
	<rect x="456" y="248" style="fill:#0C3847;" width="16" height="16"/>
	<rect x="384" y="280" style="fill:#0C3847;" width="96" height="16"/>
	<rect x="384" y="312" style="fill:#0C3847;" width="96" height="16"/>
	<rect x="384" y="344" style="fill:#0C3847;" width="96" height="16"/>
	<path style="fill:#0C3847;" d="M432,208V80h24V32H264V0h-64v32h-56V0H0v96h32v256h152v32h40v20.688L132.688,496H112v16h27.312
		L224,427.312V512h16v-84.688L324.688,512H352v-16h-20.688L240,404.688V384h40v-32h72v32h-48v24c0,17.648,14.352,32,32,32h144
		c17.648,0,32-14.352,32-32V208H432z M216,16h32v16h-32V16z M200,48h64h176v16h-8H144V48H200z M16,16h112v80l-21.336-16H16V16z
		 M264,368h-24h-16h-24v-16h64V368z M280,336h-96H48V96h53.336L144,128V80h272v128h-64v10.864c-5.016-1.792-10.376-2.864-16-2.864
		c-26.472,0-48,21.528-48,48s21.528,48,48,48c5.632,0,10.984-1.08,16-2.88V336H280z M352,291.408c-4.72,2.816-10.112,4.592-16,4.592
		c-17.648,0-32-14.352-32-32c0-14.872,10.24-27.288,24-30.864V272h24V291.408z M344,256v-22.864c2.864,0.76,5.512,1.968,8,3.456V256
		H344z M336,424c-8.824,0-16-7.176-16-16v-8h128v8c0,5.824,1.56,11.288,4.296,16H336z M496,408c0,8.824-7.176,16-16,16
		s-16-7.176-16-16v-8v-16h-96V272v-16v-32h128V408z"/>
</g>
<g>
</g>
<g>
</g>
<g>
</g>
<g>
</g>
<g>
</g>
<g>
</g>
<g>
</g>
<g>
</g>
<g>
</g>
<g>
</g>
<g>
</g>
<g>
</g>
<g>
</g>
<g>
</g>
<g>
</g>
</svg>
