<?xml version="1.0" encoding="iso-8859-1"?>
<!-- Generator: Adobe Illustrator 19.0.0, SVG Export Plug-In . SVG Version: 6.00 Build 0)  -->
<svg version="1.1" id="Layer_1" xmlns="http://www.w3.org/2000/svg" xmlns:xlink="http://www.w3.org/1999/xlink" x="0px" y="0px"
	 viewBox="0 0 295.318 295.318" style="enable-background:new 0 0 295.318 295.318;" xml:space="preserve">
<g>
	<g>
		<path style="fill:#F9BA48;" d="M162.182,154.989c-24.027,0-43.572-19.544-43.572-43.572s19.544-43.572,43.572-43.572
			s43.572,19.544,43.572,43.572S186.21,154.989,162.182,154.989z"/>
		<path style="fill:#333333;" d="M75.039,246.906c-8.007,0-14.524,6.516-14.524,14.524c0,8.007,6.516,14.524,14.524,14.524
			c8.007,0,14.524-6.516,14.524-14.524S83.046,246.906,75.039,246.906z M75.039,266.271c-2.672,0-4.841-2.169-4.841-4.841
			s2.169-4.841,4.841-4.841c2.672,0,4.841,2.169,4.841,4.841C79.88,264.102,77.711,266.271,75.039,266.271z"/>
		<path style="fill:#333333;" d="M220.277,246.906c-8.007,0-14.524,6.516-14.524,14.524c0,8.007,6.516,14.524,14.524,14.524
			c8.007,0,14.524-6.516,14.524-14.524S228.285,246.906,220.277,246.906z M220.277,266.271c-2.672,0-4.841-2.169-4.841-4.841
			s2.169-4.841,4.841-4.841s4.841,2.169,4.841,4.841C225.119,264.102,222.951,266.271,220.277,266.271z"/>
		<path style="fill:#333333;" d="M258.282,198.783c-1.917-5.785-7.378-9.973-13.798-9.973h-15.357
			c-9.286,0-18.392,3.51-25.301,9.683h-27.121v-7c0-9.489-7.717-17.206-17.206-17.206c-6.008,0-11.663,3.2-14.756,8.356
			l-9.508,15.85h-12.011c-1.53,0-2.895-0.736-3.733-2.024c-0.838-1.293-0.959-2.832-0.334-4.236l9.736-21.897
			c3.181-7.16-0.029-15.633-7.155-18.886c-5.95-2.726-12.989-1.07-17.119,4.013l-27.571,33.995l-42.24,12.994
			c-13.58,4.183-22.706,16.533-22.706,30.747v17.177c0,8.763,7.131,15.894,15.894,15.894h13.541
			c2.363,16.393,16.465,29.048,33.502,29.048s31.139-12.655,33.502-29.048h78.235c2.363,16.393,16.465,29.048,33.502,29.048
			s31.139-12.655,33.502-29.048h0.387c16.02,0,29.048-13.028,29.048-29.048v-9.683C283.214,212.915,272.355,200.787,258.282,198.783
			z M153.048,187.624c1.356-2.256,3.825-3.655,6.453-3.655c4.149,0,7.523,3.374,7.523,7.523v7h-20.498L153.048,187.624z
			 M75.039,285.636c-13.347,0-24.206-10.859-24.206-24.206c0-13.347,10.859-24.206,24.206-24.206s24.206,10.859,24.206,24.206
			C99.245,274.777,88.386,285.636,75.039,285.636z M220.277,285.636c-13.347,0-24.206-10.859-24.206-24.206
			c0-13.347,10.859-24.206,24.206-24.206s24.206,10.859,24.206,24.206C244.484,274.777,233.626,285.636,220.277,285.636z
			 M273.532,237.223c0,10.68-8.685,19.365-19.365,19.365h-0.387c-2.363-16.393-16.465-29.048-33.502-29.048
			s-31.139,12.655-33.502,29.048h-78.235c-2.363-16.393-16.465-29.048-33.502-29.048S43.9,240.195,41.537,256.588H27.996
			c-3.428,0-6.211-2.784-6.211-6.211v-8.312h12.103c6.676,0,12.103-5.427,12.103-12.103s-5.427-12.103-12.103-12.103h-2.421v9.683
			h2.421c1.331,0,2.421,1.089,2.421,2.421s-1.089,2.421-2.421,2.421H21.853c0.344-9.581,6.579-17.835,15.807-20.672l45.058-13.865
			l29.425-36.281c1.351-1.665,3.645-2.188,5.572-1.312c2.319,1.065,3.365,3.82,2.329,6.153l-9.736,21.902
			c-1.946,4.386-1.549,9.411,1.07,13.439s7.049,6.429,11.847,6.429h84.534l1.418-1.418c5.253-5.253,12.524-8.264,19.951-8.264
			h15.357c2.672,0,4.841,2.169,4.841,4.841v4.841h4.841c10.68,0,19.365,8.685,19.365,19.365V237.223z"/>
		<path style="fill:#333333;" d="M167.023,125.873h-9.683c-2.672,0-4.841,0-4.841-4.841h-9.683c0,9.683,6.516,14.592,14.524,14.592
			v4.774h9.683v-4.774c8.007,0,14.524-6.55,14.524-14.558s-6.516-14.558-14.524-14.558h-9.683c-2.672,0-4.841-2.169-4.841-4.841
			c0-2.672,2.169-4.841,4.841-4.841h9.683c2.672,0,4.841,0,4.841,4.841h9.683c0-9.683-6.516-14.456-14.524-14.456v-4.909h-9.683
			v4.909c-8.007,0-14.524,6.482-14.524,14.49s6.516,14.49,14.524,14.49h9.683c2.672,0,4.841,2.169,4.841,4.841
			C171.865,123.705,169.697,125.873,167.023,125.873z"/>
		<rect x="157.341" y="24.206" style="fill:#333333;" width="9.683" height="33.889"/>
		<rect x="157.341" y="4.909" style="fill:#333333;" width="9.683" height="9.683"/>
		<rect x="186.389" y="19.365" style="fill:#333333;" width="9.683" height="48.413"/>
		<rect x="186.389" style="fill:#333333;" width="9.683" height="9.683"/>
		<rect x="128.294" y="33.889" style="fill:#333333;" width="9.683" height="33.889"/>
		<rect x="128.294" y="14.592" style="fill:#333333;" width="9.683" height="9.683"/>
	</g>
</g>
<g>
</g>
<g>
</g>
<g>
</g>
<g>
</g>
<g>
</g>
<g>
</g>
<g>
</g>
<g>
</g>
<g>
</g>
<g>
</g>
<g>
</g>
<g>
</g>
<g>
</g>
<g>
</g>
<g>
</g>
</svg>
