<?xml version="1.0" encoding="iso-8859-1"?>
<!-- Generator: Adobe Illustrator 19.0.0, SVG Export Plug-In . SVG Version: 6.00 Build 0)  -->
<svg version="1.1" id="Layer_1" xmlns="http://www.w3.org/2000/svg" xmlns:xlink="http://www.w3.org/1999/xlink" x="0px" y="0px"
	 viewBox="0 0 300.16 300.16" style="enable-background:new 0 0 300.16 300.16;" xml:space="preserve">
<g>
	<g>
		<path style="fill:#F9BA48;" d="M213.017,159.762H87.143V53.254h125.873v106.508H213.017z"/>
		<path style="fill:#333333;" d="M48.413,0v300.16h203.334V0H48.413z M242.064,290.477H58.095V9.683h183.969V290.477z"/>
		<path style="fill:#333333;" d="M221.547,169.445H199.65c-5.979,0-10.84,4.861-10.84,10.835v17.056
			c0,5.979,4.861,10.84,10.835,10.84h21.897c5.979,0,10.84-4.861,10.84-10.835v-17.056
			C232.382,174.306,227.521,169.445,221.547,169.445z M199.645,179.128h21.897c0.644,0,1.157,0.513,1.157,1.152v3.689h-24.206
			v-3.689C198.493,179.641,199.006,179.128,199.645,179.128z M221.547,198.493H199.65c-0.644,0-1.157-0.513-1.157-1.152v-3.689
			h24.206v3.689C222.699,197.98,222.186,198.493,221.547,198.493z"/>
		<rect x="67.778" y="183.969" style="fill:#333333;" width="33.889" height="9.683"/>
		<rect x="67.778" y="217.858" style="fill:#333333;" width="164.604" height="9.683"/>
		<path style="fill:#333333;" d="M101.667,280.795h96.826v-43.572h-96.826V280.795z M111.35,271.112v-4.841h77.461v4.841H111.35z
			 M188.81,246.906v9.683h-77.46v-9.683L188.81,246.906L188.81,246.906z"/>
		<rect x="67.778" y="62.937" style="fill:#333333;" width="9.683" height="9.683"/>
		<rect x="67.778" y="82.302" style="fill:#333333;" width="9.683" height="9.683"/>
		<rect x="67.778" y="101.667" style="fill:#333333;" width="9.683" height="9.683"/>
		<rect x="67.778" y="121.032" style="fill:#333333;" width="9.683" height="9.683"/>
		<rect x="67.778" y="140.397" style="fill:#333333;" width="9.683" height="9.683"/>
		<rect x="222.699" y="62.937" style="fill:#333333;" width="9.683" height="9.683"/>
		<rect x="222.699" y="82.302" style="fill:#333333;" width="9.683" height="9.683"/>
		<rect x="222.699" y="101.667" style="fill:#333333;" width="9.683" height="9.683"/>
		<rect x="222.699" y="121.032" style="fill:#333333;" width="9.683" height="9.683"/>
		<rect x="222.699" y="140.397" style="fill:#333333;" width="9.683" height="9.683"/>
		<path style="fill:#333333;" d="M179.128,43.572h53.254v-9.683h-53.254V23.18c0-4.774-3.883-8.656-8.656-8.656h-40.783
			c-4.774,0-8.656,3.883-8.656,8.656v10.709H67.778v9.683h53.254H179.128z M130.715,24.206h38.73v9.683h-38.73V24.206z"/>
	</g>
</g>
<g>
</g>
<g>
</g>
<g>
</g>
<g>
</g>
<g>
</g>
<g>
</g>
<g>
</g>
<g>
</g>
<g>
</g>
<g>
</g>
<g>
</g>
<g>
</g>
<g>
</g>
<g>
</g>
<g>
</g>
</svg>
