<?xml version="1.0" encoding="iso-8859-1"?>
<!-- Generator: Adobe Illustrator 19.0.0, SVG Export Plug-In . SVG Version: 6.00 Build 0)  -->
<svg version="1.1" id="Layer_1" xmlns="http://www.w3.org/2000/svg" xmlns:xlink="http://www.w3.org/1999/xlink" x="0px" y="0px"
	 viewBox="0 0 300.16 300.16" style="enable-background:new 0 0 300.16 300.16;" xml:space="preserve">
<g>
	<g>
		<path style="fill:#333333;" d="M285.636,198.493h-4.841V91.984c0-8.007-6.516-14.524-14.524-14.524h-4.841V53.254h-9.683V77.46
			h-9.683V53.254h-9.683V77.46h-111.35v9.683h130.715v29.048H48.413V87.143h19.365V77.46H33.889
			c-8.007,0-14.524,6.516-14.524,14.524v106.508h-4.841C6.516,198.493,0,205.009,0,213.017v72.619
			c0,8.007,6.516,14.524,14.524,14.524h271.112c8.007,0,14.524-6.516,14.524-14.524v-72.619
			C300.16,205.009,293.643,198.493,285.636,198.493z M29.048,91.984c0-2.668,2.169-4.841,4.841-4.841h4.841v38.73h222.699v-38.73
			h4.841c2.672,0,4.841,2.174,4.841,4.841v106.508H29.048V91.984z M290.477,285.636c0,2.672-2.169,4.841-4.841,4.841H14.524
			c-2.672,0-4.841-2.169-4.841-4.841v-72.619c0-2.672,2.169-4.841,4.841-4.841h4.841h261.429h4.841c2.672,0,4.841,2.169,4.841,4.841
			v72.619H290.477z"/>
		<path style="fill:#F9BA48;" d="M251.747,58.095h-77.461c-16.02,0-29.048-13.028-29.048-29.048S158.266,0,174.286,0h77.461
			c16.02,0,29.048,13.028,29.048,29.048S267.767,58.095,251.747,58.095z"/>
		<path style="fill:#F9BA48;" d="M125.873,106.508H62.937v-77.46h62.937L125.873,106.508L125.873,106.508z"/>
		<polygon style="fill:#333333;" points="193.651,43.572 203.334,43.572 203.334,14.524 188.81,14.524 188.81,24.206 
			193.651,24.206 		"/>
		<polygon style="fill:#333333;" points="227.54,33.889 219.862,33.889 227.54,26.211 227.54,14.524 208.175,14.524 208.175,24.206 
			215.854,24.206 208.175,31.885 208.175,43.572 227.54,43.572 		"/>
		<path style="fill:#333333;" d="M256.588,14.524h-24.206v29.048h24.206V14.524z M246.906,33.889h-4.841v-9.683h4.841V33.889z"/>
		<rect x="58.095" y="96.826" style="fill:#333333;" width="72.619" height="9.683"/>
		<rect x="77.461" y="48.413" style="fill:#333333;" width="33.889" height="9.683"/>
		<rect x="87.143" y="62.937" style="fill:#333333;" width="24.206" height="9.683"/>
		<path style="fill:#333333;" d="M19.365,280.795h261.429v-62.937H19.365V280.795z M29.048,227.54h242.064v43.572H29.048V227.54z"/>
		<path style="fill:#333333;" d="M150.08,232.382c-9.344,0-16.945,7.601-16.945,16.945s7.601,16.945,16.945,16.945
			c9.344,0,16.944-7.601,16.944-16.945S159.424,232.382,150.08,232.382z M142.818,249.326c0-2.14,0.944-4.042,2.421-5.374V254.7
			C143.762,253.369,142.818,251.466,142.818,249.326z M154.921,254.7v-10.748c1.477,1.331,2.421,3.234,2.421,5.374
			C157.342,251.466,156.398,253.369,154.921,254.7z"/>
		<path style="fill:#333333;" d="M38.73,159.762h33.889v-24.206H38.73V159.762z M48.413,145.239h14.524v4.841H48.413V145.239z"/>
		<path style="fill:#333333;" d="M38.73,188.81h33.889v-24.206H38.73V188.81z M48.413,174.286h14.524v4.841H48.413V174.286z"/>
		<path style="fill:#333333;" d="M82.302,159.762h33.889v-24.206H82.302V159.762z M91.984,145.239h14.524v4.841H91.984V145.239z"/>
		<path style="fill:#333333;" d="M82.302,188.81h33.889v-24.206H82.302V188.81z M91.984,174.286h14.524v4.841H91.984V174.286z"/>
		<path style="fill:#333333;" d="M125.873,159.762h33.889v-24.206h-33.889C125.873,135.556,125.873,159.762,125.873,159.762z
			 M135.556,145.239h14.524v4.841h-14.524V145.239z"/>
		<path style="fill:#333333;" d="M125.873,188.81h33.889v-24.206h-33.889C125.873,164.604,125.873,188.81,125.873,188.81z
			 M135.556,174.286h14.524v4.841h-14.524V174.286z"/>
		<path style="fill:#333333;" d="M169.445,188.81h91.984v-53.254h-91.984V188.81z M179.128,145.239h72.619v33.889h-72.619V145.239z"
			/>
	</g>
</g>
<g>
</g>
<g>
</g>
<g>
</g>
<g>
</g>
<g>
</g>
<g>
</g>
<g>
</g>
<g>
</g>
<g>
</g>
<g>
</g>
<g>
</g>
<g>
</g>
<g>
</g>
<g>
</g>
<g>
</g>
</svg>
