<?xml version="1.0" encoding="iso-8859-1"?>
<!-- Generator: Adobe Illustrator 19.0.0, SVG Export Plug-In . SVG Version: 6.00 Build 0)  -->
<svg version="1.1" id="Layer_1" xmlns="http://www.w3.org/2000/svg" xmlns:xlink="http://www.w3.org/1999/xlink" x="0px" y="0px"
	 viewBox="0 0 300.16 300.16" style="enable-background:new 0 0 300.16 300.16;" xml:space="preserve">
<g>
	<g>
		<path style="fill:#F9BA48;" d="M220.278,121.032c-4.009,0-7.262-3.253-7.262-7.262s3.253-7.262,7.262-7.262h-4.841
			c-4.009,0-7.262-3.253-7.262-7.262s3.253-7.262,7.262-7.262h7.262v-4.841H38.73v4.841c0,8.007-6.516,14.524-14.524,14.524h-4.841
			v58.095h203.334v-43.572L220.278,121.032L220.278,121.032z M103.889,159.762c6.168-19.641,24.511-33.889,46.191-33.889
			c21.674,0,40.018,14.248,46.191,33.889H103.889z"/>
		<path style="fill:#F9BA48;" d="M275.953,106.508c-3.529,0-6.938-1.283-9.586-3.612l-0.755-0.663
			c-1.143,2.517-3.66,4.275-6.604,4.275h-4.841c4.009,0,7.262,3.253,7.262,7.262s-3.253,7.262-7.262,7.262h-2.421v43.572h29.048
			v-58.095L275.953,106.508L275.953,106.508z"/>
		<path style="fill:#333333;" d="M82.302,213.017v-4.841c0-13.347-10.859-24.206-24.206-24.206v-9.683h-9.683v9.683
			c-13.347,0-24.206,10.859-24.206,24.206s10.859,24.206,24.206,24.206h9.683c8.007,0,14.524,6.516,14.524,14.524
			s-6.516,14.524-14.524,14.524h-9.683c-8.007,0-14.524-6.516-14.524-14.524v-4.841h-9.683v4.841
			c0,13.347,10.859,24.206,24.206,24.206v9.683h9.683v-9.683c13.347,0,24.206-10.859,24.206-24.206S71.442,222.7,58.095,222.7
			h-9.683c-8.007,0-14.524-6.516-14.524-14.524s6.516-14.524,14.524-14.524h9.683c8.007,0,14.524,6.516,14.524,14.524v4.841
			L82.302,213.017L82.302,213.017z"/>
		<rect x="111.35" y="271.112" style="fill:#333333;" width="9.683" height="9.683"/>
		<rect x="130.715" y="271.112" style="fill:#333333;" width="9.683" height="9.683"/>
		<rect x="150.08" y="271.112" style="fill:#333333;" width="9.683" height="9.683"/>
		<rect x="169.445" y="271.112" style="fill:#333333;" width="9.683" height="9.683"/>
		<path style="fill:#333333;" d="M261.429,67.778v9.683h29.048v77.461h-33.889v9.683h33.889v125.873H9.683V164.604h208.175v-9.683
			h-18.184c-7.935-20.406-27.421-33.889-49.594-33.889s-41.659,13.483-49.594,33.889H9.683v-77.46h203.334v-9.683H0v87.143v4.841
			V300.16h300.16V159.762v-4.841V67.778H261.429z M150.08,130.715c16.838,0,31.788,9.494,39.04,24.206h-78.08
			C118.292,140.208,133.242,130.715,150.08,130.715z"/>
		<path style="fill:#F9BA48;" d="M237.223,0c-24.027,0-43.572,19.544-43.572,43.572c0,14.519,7.354,28.138,19.365,36.189v17.066
			h48.413V79.76c12.011-8.051,19.365-21.67,19.365-36.189C280.795,19.544,261.25,0,237.223,0z M237.223,53.254
			c-5.35,0-9.683-4.333-9.683-9.683s4.333-9.683,9.683-9.683s9.683,4.333,9.683,9.683S242.573,53.254,237.223,53.254z"/>
		<path style="fill:#333333;" d="M271.112,99.246c0-6.676-5.432-12.103-12.103-12.103h-16.945V57.205
			c5.621-2.004,9.683-7.33,9.683-13.633c0-8.007-6.516-14.524-14.524-14.524s-14.524,6.516-14.524,14.524
			c0,6.303,4.062,11.629,9.683,13.633v29.938h-16.944c-6.671,0-12.103,5.427-12.103,12.103c0,4.304,2.275,8.066,5.669,10.215
			c-0.518,1.346-0.789,2.789-0.789,4.309c0,3.902-0.039,7.344,4.803,9.557V227.54H96.826v9.683h114.777l-2.382,9.683H106.508v9.683
			h104.243l26.472,31.773l29.546-35.409l-5.34-21.176V123.458c4.841-2.208,4.88-5.708,4.88-9.687c0-1.525-0.334-2.968-0.847-4.309
			C268.856,107.312,271.112,103.55,271.112,99.246z M237.223,38.73c2.668,0,4.841,2.169,4.841,4.841s-2.174,4.841-4.841,4.841
			c-2.668,0-4.841-2.169-4.841-4.841S234.555,38.73,237.223,38.73z M215.437,96.826h43.572c1.336,0,2.421,1.089,2.421,2.421
			s-1.084,2.421-2.421,2.421h-43.572c-1.336,0-2.421-1.089-2.421-2.421S214.101,96.826,215.437,96.826z M256.588,113.77
			c0,1.331-1.084,2.421-2.421,2.421h-33.889c-1.336,0-2.421-1.089-2.421-2.421s1.084-2.421,2.421-2.421h33.889
			C255.504,111.35,256.588,112.439,256.588,113.77z M222.699,227.54v-9.683h29.048v9.683H222.699z M251.747,208.175h-29.048v-82.302
			h29.048V208.175z M237.223,273.232l-18.92-22.701l3.273-13.309h10.806v14.524h9.683v-14.524h10.68l3.384,13.323L237.223,273.232z"
			/>
	</g>
</g>
<g>
</g>
<g>
</g>
<g>
</g>
<g>
</g>
<g>
</g>
<g>
</g>
<g>
</g>
<g>
</g>
<g>
</g>
<g>
</g>
<g>
</g>
<g>
</g>
<g>
</g>
<g>
</g>
<g>
</g>
</svg>
