<?xml version="1.0" encoding="iso-8859-1"?>
<!-- Generator: Adobe Illustrator 19.0.0, SVG Export Plug-In . SVG Version: 6.00 Build 0)  -->
<svg version="1.1" id="Layer_1" xmlns="http://www.w3.org/2000/svg" xmlns:xlink="http://www.w3.org/1999/xlink" x="0px" y="0px"
	 viewBox="0 0 300.16 300.16" style="enable-background:new 0 0 300.16 300.16;" xml:space="preserve">
<g>
	<line style="fill:none;stroke:#333333;stroke-width:2;stroke-miterlimit:10;" x1="43.573" y1="24.206" x2="256.589" y2="24.206"/>
	<g>
		<path style="fill:#F9BA48;" d="M82.303,300.16c-18.683,0-33.889-15.206-33.889-33.889s15.206-33.889,33.889-33.889
			s33.889,15.206,33.889,33.889S100.985,300.16,82.303,300.16z"/>
		<path style="fill:#F9BA48;" d="M213.018,266.271c-18.683,0-33.889-15.206-33.889-33.889s15.206-33.889,33.889-33.889
			s33.889,15.206,33.889,33.889S231.7,266.271,213.018,266.271z"/>
		<path style="fill:#333333;" d="M246.907,0H53.255c-8.007,0-14.524,6.516-14.524,14.524v116.191
			c0,8.007,6.516,14.524,14.524,14.524h193.651c8.007,0,14.524-6.516,14.524-14.524V14.524C261.43,6.516,254.913,0,246.907,0z
			 M53.255,9.683h193.651c2.672,0,4.841,2.174,4.841,4.841v29.048H48.414V14.524C48.414,11.856,50.583,9.683,53.255,9.683z
			 M246.907,135.556H53.255c-2.672,0-4.841-2.174-4.841-4.841V53.254h203.334v77.461
			C251.747,133.382,249.579,135.556,246.907,135.556z"/>
		<path style="fill:#333333;" d="M208.176,67.778c-5.292,0-10.244,1.448-14.524,3.931c-4.28-2.484-9.232-3.931-14.524-3.931
			c-16.02,0-29.048,13.028-29.048,29.048s13.028,29.048,29.048,29.048c5.292,0,10.244-1.448,14.524-3.931
			c4.28,2.484,9.232,3.931,14.524,3.931c16.02,0,29.048-13.028,29.048-29.048S224.196,67.778,208.176,67.778z M193.652,109.5
			c-2.977-3.403-4.841-7.804-4.841-12.674c0-4.87,1.864-9.266,4.841-12.674c2.977,3.403,4.841,7.804,4.841,12.674
			C198.493,101.696,196.63,106.092,193.652,109.5z M159.762,96.826c0-10.68,8.685-19.365,19.365-19.365
			c2.266,0,4.406,0.465,6.429,1.181c-4.013,4.982-6.429,11.304-6.429,18.184s2.416,13.202,6.429,18.184
			c-2.024,0.717-4.164,1.181-6.429,1.181C168.449,116.191,159.762,107.506,159.762,96.826z M208.176,116.191
			c-2.266,0-4.406-0.465-6.429-1.181c4.013-4.982,6.429-11.304,6.429-18.184s-2.416-13.202-6.429-18.184
			c2.024-0.717,4.163-1.181,6.429-1.181c10.68,0,19.365,8.685,19.365,19.365S218.855,116.191,208.176,116.191z"/>
		<rect x="48.414" y="188.81" style="fill:#333333;" width="9.683" height="38.73"/>
		<rect x="48.414" y="169.445" style="fill:#333333;" width="9.683" height="9.683"/>
		<rect x="106.509" y="154.921" style="fill:#333333;" width="9.683" height="62.937"/>
		<rect x="77.462" y="179.128" style="fill:#333333;" width="9.683" height="43.572"/>
		<rect x="77.462" y="159.762" style="fill:#333333;" width="9.683" height="9.683"/>
		<rect x="179.129" y="164.604" style="fill:#333333;" width="9.683" height="33.889"/>
		<rect x="237.224" y="154.921" style="fill:#333333;" width="9.683" height="29.048"/>
		<rect x="208.176" y="174.286" style="fill:#333333;" width="9.683" height="14.524"/>
		<rect x="208.176" y="154.921" style="fill:#333333;" width="9.683" height="9.683"/>
	</g>
</g>
<g>
</g>
<g>
</g>
<g>
</g>
<g>
</g>
<g>
</g>
<g>
</g>
<g>
</g>
<g>
</g>
<g>
</g>
<g>
</g>
<g>
</g>
<g>
</g>
<g>
</g>
<g>
</g>
<g>
</g>
</svg>
