<?xml version="1.0" encoding="iso-8859-1"?>
<!-- Generator: Adobe Illustrator 19.0.0, SVG Export Plug-In . SVG Version: 6.00 Build 0)  -->
<svg version="1.1" id="Layer_1" xmlns="http://www.w3.org/2000/svg" xmlns:xlink="http://www.w3.org/1999/xlink" x="0px" y="0px"
	 viewBox="0 0 291.964 291.964" style="enable-background:new 0 0 291.964 291.964;" xml:space="preserve">
<g>
	<g>
		<polygon style="fill:#F9BA48;" points="291.22,140.397 145.982,290.477 0.743,140.397 58.839,67.778 233.125,67.778 		"/>
		<path style="fill:#333333;" d="M291.22,135.556h-88.755L237.4,70.058l-8.55-4.556l-34.92,65.474l-43.92-65.88l-4.028,2.682
			l-4.028-2.687l-43.92,65.88l-34.92-65.474l-8.55,4.556l34.935,65.503H0.743v9.683h93.301l47.328,146.725l4.609-1.486l4.609,1.486
			l47.328-146.725h93.301v-9.683H291.22z M185.351,135.556h-78.739l39.369-59.049L185.351,135.556z M145.982,274.704
			l-41.761-129.466h83.527L145.982,274.704z"/>
		<polygon style="fill:#333333;" points="141.14,38.73 150.823,38.73 150.823,24.206 165.347,24.206 165.347,14.524 150.823,14.524 
			150.823,0 141.14,0 141.14,14.524 126.617,14.524 126.617,24.206 141.14,24.206 		"/>
		<polygon style="fill:#333333;" points="237.966,53.254 247.649,53.254 247.649,38.73 262.173,38.73 262.173,29.048 
			247.649,29.048 247.649,14.524 237.966,14.524 237.966,29.048 223.442,29.048 223.442,38.73 237.966,38.73 		"/>
		<polygon style="fill:#333333;" points="44.315,53.254 53.997,53.254 53.997,38.73 68.521,38.73 68.521,29.048 53.997,29.048 
			53.997,14.524 44.315,14.524 44.315,29.048 29.791,29.048 29.791,38.73 44.315,38.73 		"/>
	</g>
</g>
<g>
</g>
<g>
</g>
<g>
</g>
<g>
</g>
<g>
</g>
<g>
</g>
<g>
</g>
<g>
</g>
<g>
</g>
<g>
</g>
<g>
</g>
<g>
</g>
<g>
</g>
<g>
</g>
<g>
</g>
</svg>
