<?xml version="1.0" encoding="iso-8859-1"?>
<!-- Generator: Adobe Illustrator 19.0.0, SVG Export Plug-In . SVG Version: 6.00 Build 0)  -->
<svg version="1.1" id="Layer_1" xmlns="http://www.w3.org/2000/svg" xmlns:xlink="http://www.w3.org/1999/xlink" x="0px" y="0px"
	 viewBox="0 0 301.641 301.641" style="enable-background:new 0 0 301.641 301.641;" xml:space="preserve">
<g>
	<g>
		<path style="fill:#F9BA48;" d="M150.821,153.24c-13.347,0-24.206-10.859-24.206-24.206s10.859-24.206,24.206-24.206
			s24.206,10.859,24.206,24.206S164.168,153.24,150.821,153.24z"/>
		<path style="fill:#333333;" d="M295.415,235.542h-24.206l-4.841-33.889h-24.206l-4.841-33.889H106.605h-4.197H64.321
			l-4.841,33.889H35.274l-4.841,33.889H6.226L0,279.115h49.154h5.582h3.355h54.74h3.355h54.74h130.715L295.415,235.542z
			 M257.973,211.337l3.457,24.206H140.494l-3.457-24.206h106.508H257.973z M122.417,235.542h-15.812h-8.298l3.457-24.206h25.494
			l3.457,24.206H122.417z M88.528,235.542h-6.124l-3.457-24.206h13.042L88.528,235.542z M228.925,177.447l3.457,24.206h-96.729
			h-4.197h-20.009l-3.457-24.206H228.925z M72.716,177.447H98.21l3.457,24.206h-8.298H77.557h-8.298L72.716,177.447z
			 M43.668,211.337H58.09h11.067l3.457,24.206h-8.298H48.505h-8.293L43.668,211.337z M11.164,269.432l3.457-24.206h14.422H40.11
			l3.457,24.206H11.164z M53.351,269.432l-3.457-24.206h13.042l-3.457,24.206H53.351z M69.259,269.432l3.457-24.206h11.067h3.355
			h11.067l3.457,24.206H69.259z M111.446,269.432l-3.457-24.206h13.042l-3.457,24.206H111.446z M127.355,269.432l3.457-24.206
			h25.494l3.457,24.206H127.355z M169.542,269.432l-3.457-24.206h106.508h14.422l3.457,24.206H169.542z"/>
		<path style="fill:#333333;" d="M145.979,22.527h9.683v48.413h-9.683V22.527z"/>
		<path style="fill:#333333;" d="M125.963,76.292l-8.385,4.841L93.373,39.209l8.385-4.841L125.963,76.292z"/>
		<path style="fill:#333333;" d="M102.926,95.796l-4.841,8.385L56.16,79.975l4.841-8.385L102.926,95.796z"/>
		<path style="fill:#333333;" d="M44.312,124.193h48.413v9.683H44.312V124.193z"/>
		<path style="fill:#333333;" d="M208.916,124.193h48.413v9.683h-48.413L208.916,124.193L208.916,124.193z"/>
		<path style="fill:#333333;" d="M245.481,79.969l-41.925,24.206l-4.841-8.385l41.925-24.206L245.481,79.969z"/>
		<path style="fill:#333333;" d="M208.259,39.207l-24.202,41.931l-8.386-4.841l24.202-41.931L208.259,39.207z"/>
	</g>
</g>
<g>
</g>
<g>
</g>
<g>
</g>
<g>
</g>
<g>
</g>
<g>
</g>
<g>
</g>
<g>
</g>
<g>
</g>
<g>
</g>
<g>
</g>
<g>
</g>
<g>
</g>
<g>
</g>
<g>
</g>
</svg>
