<?xml version="1.0" encoding="iso-8859-1"?>
<!-- Generator: Adobe Illustrator 19.0.0, SVG Export Plug-In . SVG Version: 6.00 Build 0)  -->
<svg version="1.1" id="Layer_1" xmlns="http://www.w3.org/2000/svg" xmlns:xlink="http://www.w3.org/1999/xlink" x="0px" y="0px"
	 viewBox="0 0 300.163 300.163" style="enable-background:new 0 0 300.163 300.163;" xml:space="preserve">
<g>
	<g>
		<path style="fill:#333333;" d="M295.32,106.508c-23.175,0-42.129,18.203-43.446,41.054l-9.808,7.359V82.302h-9.683v49.052
			l-19.501-12.999c-1.399-22.778-20.319-40.894-43.436-40.894h-4.841v4.841c0,23.49,18.697,42.647,41.984,43.489l25.794,17.196
			v31.299h-38.73v19.365v9.683v9.683v9.683v9.683v9.683v9.683v9.683v9.683v9.683v19.365h87.143v-19.365v-9.683v-9.683v-9.683v-9.683
			v-9.683V222.7v-9.683v-9.683v-9.683v-19.365h-38.73v-7.262l16.252-12.19c23.219-0.92,41.843-20.043,41.843-43.484v-4.841h-4.841
			V106.508z M174.695,87.55c14.495,2.261,25.973,13.74,28.234,28.234C188.435,113.523,176.956,102.045,174.695,87.55z
			 M232.384,203.334v9.683h-9.683v-9.683H232.384z M232.384,222.699v9.683h-9.683v-9.683H232.384z M232.384,242.064v9.683h-9.683
			v-9.683H232.384z M232.384,261.429v9.683h-9.683v-9.683H232.384z M232.384,280.795v9.683h-9.683v-9.683H232.384z M242.066,280.795
			h9.683v9.683h-9.683V280.795z M242.066,271.112v-9.683h9.683v9.683H242.066z M242.066,251.747v-9.683h9.683v9.683H242.066z
			 M242.066,232.382v-9.683h9.683v9.683H242.066z M242.066,213.017v-9.683h9.683v9.683H242.066z M242.066,193.651v-9.683h9.683
			v9.683H242.066z M232.384,193.651h-9.683v-9.683h9.683V193.651z M203.336,183.969h9.683v9.683h-9.683V183.969z M203.336,203.334
			h9.683v9.683h-9.683V203.334z M203.336,222.699h9.683v9.683h-9.683V222.699z M203.336,242.064h9.683v9.683h-9.683V242.064z
			 M203.336,261.429h9.683v9.683h-9.683V261.429z M203.336,280.795h9.683v9.683h-9.683V280.795z M271.114,290.477h-9.683v-9.683
			h9.683V290.477z M271.114,271.112h-9.683v-9.683h9.683V271.112z M271.114,251.747h-9.683v-9.683h9.683V251.747z M271.114,232.382
			h-9.683v-9.683h9.683V232.382z M271.114,213.017h-9.683v-9.683h9.683V213.017z M271.114,193.651h-9.683v-9.683h9.683V193.651z
			 M261.838,144.832c2.261-14.495,13.74-25.973,28.234-28.234C287.812,131.092,276.333,142.571,261.838,144.832z"/>
		<path style="fill:#F9BA48;" d="M237.225,87.143c-24.027,0-43.572-19.544-43.572-43.572S213.198,0,237.225,0
			s43.572,19.544,43.572,43.572S261.252,87.143,237.225,87.143z"/>
		<path style="fill:#333333;" d="M242.066,58.095h-9.683c-2.668,0-4.841-2.169-4.841-4.841h-9.683
			c0,8.007,6.516,14.524,14.524,14.524v4.841h9.683v-4.841c8.007,0,14.524-6.516,14.524-14.524s-6.516-14.524-14.524-14.524h-9.683
			c-2.668,0-4.841-2.169-4.841-4.841s2.174-4.841,4.841-4.841h9.683c2.668,0,4.841,2.169,4.841,4.841h9.683
			c0-8.007-6.516-14.524-14.524-14.524v-4.841h-9.683v4.841c-8.007,0-14.524,6.516-14.524,14.524s6.516,14.524,14.524,14.524h9.683
			c2.668,0,4.841,2.169,4.841,4.841S244.734,58.095,242.066,58.095z"/>
		<path style="fill:#333333;" d="M96.828,232.382v9.683v9.683v9.683v9.683v9.683v19.365h87.143v-19.365v-9.683v-9.683v-9.683v-9.683
			v-9.683v-19.365H96.828V232.382z M106.51,242.064h9.683v9.683h-9.683V242.064z M125.875,251.747v-9.683h9.683v9.683H125.875z
			 M135.558,261.429v9.683h-9.683v-9.683H135.558z M135.558,280.795v9.683h-9.683v-9.683H135.558z M145.241,280.795h9.683v9.683
			h-9.683V280.795z M145.241,271.112v-9.683h9.683v9.683H145.241z M145.241,251.747v-9.683h9.683v9.683H145.241z M145.241,232.382
			v-9.683h9.683v9.683H145.241z M135.558,232.382h-9.683v-9.683h9.683V232.382z M106.51,261.429h9.683v9.683h-9.683V261.429z
			 M106.51,280.795h9.683v9.683h-9.683V280.795z M174.288,290.477h-9.683v-9.683h9.683V290.477z M174.288,271.112h-9.683v-9.683
			h9.683V271.112z M174.288,251.747h-9.683v-9.683h9.683V251.747z M174.288,232.382h-9.683v-9.683h9.683V232.382z M106.51,222.699
			h9.683v9.683h-9.683V222.699z"/>
		<path style="fill:#333333;" d="M0.002,271.112v9.683v19.365h87.143v-19.365v-9.683v-19.365H0.002V271.112z M9.685,280.795h9.683
			v9.683H9.685V280.795z M48.415,280.795h9.683v9.683h-9.683V280.795z M38.732,290.477h-9.683v-9.683h9.683V290.477z
			 M48.415,271.112v-9.683h9.683v9.683H48.415z M38.732,271.112h-9.683v-9.683h9.683V271.112z M77.463,290.477H67.78v-9.683h9.683
			V290.477z M77.463,271.112H67.78v-9.683h9.683V271.112z M9.685,261.429h9.683v9.683H9.685V261.429z"/>
		<polygon style="fill:#333333;" points="74.04,137.309 114.208,162.415 146.432,51.937 155.431,69.942 164.097,65.614 
			147.405,32.233 114.029,48.921 118.357,57.587 137.49,48.021 108.495,147.427 71.203,124.121 0.815,229.695 8.871,235.069 		"/>
	</g>
</g>
<g>
</g>
<g>
</g>
<g>
</g>
<g>
</g>
<g>
</g>
<g>
</g>
<g>
</g>
<g>
</g>
<g>
</g>
<g>
</g>
<g>
</g>
<g>
</g>
<g>
</g>
<g>
</g>
<g>
</g>
</svg>
