<?xml version="1.0" encoding="iso-8859-1"?>
<!-- Generator: Adobe Illustrator 19.0.0, SVG Export Plug-In . SVG Version: 6.00 Build 0)  -->
<svg version="1.1" id="Layer_1" xmlns="http://www.w3.org/2000/svg" xmlns:xlink="http://www.w3.org/1999/xlink" x="0px" y="0px"
	 viewBox="0 0 300.16 300.16" style="enable-background:new 0 0 300.16 300.16;" xml:space="preserve">
<g>
	<g>
		<path style="fill:#F9BA48;" d="M261.429,65.357c-8.007,0-14.524-6.516-14.524-14.524v-4.841h-61.47
			c19.607,14.054,32.422,36.978,32.422,62.937s-12.815,48.882-32.422,62.937h61.204l0.484-4.304
			c0.876-7.862,6.981-13.972,14.843-14.843l4.304-0.484V65.357H261.429z"/>
		<path style="fill:#F9BA48;" d="M95.359,171.866c-19.607-14.054-32.422-36.978-32.422-62.937s12.815-48.882,32.422-62.937H38.73
			v4.841c0,8.007-6.516,14.524-14.524,14.524h-4.841V152.5h4.841c8.007,0,14.524,6.516,14.524,14.524v4.841L95.359,171.866
			L95.359,171.866z"/>
		<circle style="fill:#F9BA48;" cx="140.397" cy="108.929" r="53.254"/>
		<path style="fill:#333333;" d="M293.101,232.406l-41.17-41.175h33.705V26.627H0v164.604h191.105l6.734,7.078l-10.273,10.273
			l6.846,6.846l6.783-6.783l57.834,57.829c4.551,4.551,10.602,7.059,17.036,7.059s12.486-2.508,17.036-7.059
			c4.551-4.546,7.059-10.598,7.059-17.036C300.16,242.999,297.652,236.952,293.101,232.406z M275.953,36.31v145.239h-33.705
			l-6.976-6.976l6.787-6.787l-6.846-6.846l-10.186,10.186l-16.33-16.33c8.831-13.11,14.001-28.893,14.001-45.866
			c0-31.415-17.709-58.754-43.654-72.619h96.909V36.31z M140.397,181.548c-40.042,0-72.619-32.577-72.619-72.619
			s32.577-72.619,72.619-72.619s72.619,32.577,72.619,72.619S180.44,181.548,140.397,181.548z M9.683,181.548V36.31h92.067
			c-25.944,13.865-43.654,41.204-43.654,72.619s17.709,58.754,43.654,72.619H9.683z M179.045,181.548
			c0.625-0.334,1.23-0.702,1.845-1.051l1.002,1.051H179.045z M189.125,175.104c4.987-3.684,9.557-7.886,13.599-12.578l15.449,15.449
			l-13.488,13.488L189.125,175.104z M286.255,259.628c-5.446,5.446-14.931,5.446-20.377,0l-57.834-57.829l20.382-20.382
			l57.834,57.834c2.716,2.721,4.217,6.342,4.217,10.186C290.477,253.281,288.976,256.903,286.255,259.628z"/>
		<path style="fill:#333333;" d="M145.239,75.04v-4.841h-9.683v4.841c-10.68,0-19.365,8.685-19.365,19.365
			s8.685,19.365,19.365,19.365h9.683c5.34,0,9.683,4.343,9.683,9.683s-4.343,9.683-9.683,9.683h-9.683
			c-5.34,0-9.683-4.343-9.683-9.683v-4.841h-9.683v4.841c0,10.68,8.685,19.365,19.365,19.365v4.841h9.683v-4.841
			c10.68,0,19.365-8.685,19.365-19.365s-8.685-19.365-19.365-19.365h-9.683c-5.34,0-9.683-4.343-9.683-9.683
			s4.343-9.683,9.683-9.683h9.683c5.34,0,9.683,4.343,9.683,9.683v4.841h9.683v-4.841C164.604,83.725,155.918,75.04,145.239,75.04z"
			/>
		<path style="fill:#333333;" d="M140.397,50.833c-32.035,0-58.095,26.061-58.095,58.095s26.061,58.095,58.095,58.095
			s58.095-26.061,58.095-58.095S172.432,50.833,140.397,50.833z M140.397,157.342c-26.695,0-48.413-21.718-48.413-48.413
			s21.718-48.413,48.413-48.413s48.413,21.718,48.413,48.413S167.092,157.342,140.397,157.342z"/>
	</g>
</g>
<g>
</g>
<g>
</g>
<g>
</g>
<g>
</g>
<g>
</g>
<g>
</g>
<g>
</g>
<g>
</g>
<g>
</g>
<g>
</g>
<g>
</g>
<g>
</g>
<g>
</g>
<g>
</g>
<g>
</g>
</svg>
