<?xml version="1.0" encoding="iso-8859-1"?>
<!-- Generator: Adobe Illustrator 19.0.0, SVG Export Plug-In . SVG Version: 6.00 Build 0)  -->
<svg version="1.1" id="Layer_1" xmlns="http://www.w3.org/2000/svg" xmlns:xlink="http://www.w3.org/1999/xlink" x="0px" y="0px"
	 viewBox="0 0 301.307 301.307" style="enable-background:new 0 0 301.307 301.307;" xml:space="preserve">
<g>
	<g>
		<path style="fill:#F9BA48;" d="M136.703,80.455l-19.365-24.206L97.973,80.455H15.671v91.984h24.206v-41.151
			c0-14.708,11.919-26.627,26.627-26.627s26.627,11.919,26.627,26.627v41.151h125.873V80.455H136.703z M194.799,138.55h-67.778
			V99.82h67.778V138.55z"/>
		<path style="fill:#333333;" d="M267.418,220.852v14.524h-32.422l-13.304-8.879l-40.802-14.475
			c-3.888-1.365-8.051-1.089-11.721,0.775c-3.675,1.864-6.352,5.059-7.548,9c-2.067,6.826,1.002,14.204,7.296,17.545l10.481,5.567
			l-15.24,0.048l-6.265-15.666c-2.058-5.141-6.962-8.458-12.5-8.458c-4.323,0-8.409,2.096-10.932,5.606s-3.205,8.056-1.825,12.156
			l1.462,4.343l-10.617-5.805c-3.384-1.849-7.422-2.212-11.072-0.978c-3.655,1.22-6.662,3.936-8.25,7.446
			c-3.108,6.865-0.247,14.858,6.512,18.194l23.897,11.793l49.604,10.089l64.365,0.097l18.881-3.781v13.478h33.889v-72.619H267.418z
			 M142.324,232.089c1.622-2.266,5.538-1.786,6.574,0.799l4.841,12.098l-8.724,0.029l-3.205-9.513
			C141.414,234.335,141.603,233.091,142.324,232.089z M267.418,270.117l-19.844,3.989h-61.978l-47.319-9.474l-23.325-11.513
			c-2.048-1.012-2.919-3.437-1.975-5.524c0.489-1.08,1.375-1.883,2.503-2.256c1.118-0.382,2.319-0.266,3.36,0.305l16.63,9.097
			h45.949l19.104-9.562l-27.063-14.393c-2.217-1.176-3.302-3.781-2.571-6.187c0.421-1.389,1.365-2.522,2.663-3.176
			c1.293-0.658,2.764-0.75,4.134-0.276l39.142,13.744l15.236,10.167h35.356v25.059H267.418z M291.625,283.789h-14.524v-53.254
			h14.524V283.789z"/>
		<path style="fill:#333333;" d="M233.529,167.598H97.973v-36.31c0-17.351-14.117-31.468-31.468-31.468
			s-31.468,14.117-31.468,31.468v36.31H1.147v29.048h232.382V167.598z M44.719,131.288c0-12.011,9.775-21.786,21.786-21.786
			s21.786,9.775,21.786,21.786v36.31H44.719V131.288z M223.847,186.963H10.83v-9.683h24.206h62.937h125.873L223.847,186.963
			L223.847,186.963z"/>
		<path style="fill:#333333;" d="M68.925,85.296h31.372l17.041-21.297l17.041,21.297h31.372h9.833h59.093l-16.596-77.46H16.596
			L0,85.296h59.093H68.925z M139.027,75.614l-21.689-27.116L95.649,75.614H78.758l38.58-50.156l38.58,50.156H139.027z
			 M222.699,75.614h-54.566l-44.69-58.095h86.804L222.699,75.614z M11.977,75.614l12.452-58.095h86.804l-44.69,58.095H11.977z"/>
		<path style="fill:#333333;" d="M122.18,143.392h77.461V94.979H122.18V143.392z M131.862,124.026h24.206v9.683h-24.206V124.026z
			 M165.751,133.709v-9.683h24.206v9.683H165.751z M189.958,114.344h-24.206v-9.683h24.206V114.344z M156.069,104.661v9.683h-24.206
			v-9.683H156.069z"/>
	</g>
</g>
<g>
</g>
<g>
</g>
<g>
</g>
<g>
</g>
<g>
</g>
<g>
</g>
<g>
</g>
<g>
</g>
<g>
</g>
<g>
</g>
<g>
</g>
<g>
</g>
<g>
</g>
<g>
</g>
<g>
</g>
</svg>
