<?xml version="1.0" encoding="iso-8859-1"?>
<!-- Generator: Adobe Illustrator 19.0.0, SVG Export Plug-In . SVG Version: 6.00 Build 0)  -->
<svg version="1.1" id="Layer_1" xmlns="http://www.w3.org/2000/svg" xmlns:xlink="http://www.w3.org/1999/xlink" x="0px" y="0px"
	 viewBox="0 0 300.16 300.16" style="enable-background:new 0 0 300.16 300.16;" xml:space="preserve">
<g>
	<g>
		<path style="fill:#F9BA48;" d="M121.226,159.762h-87.53c-7.901,0-14.33-6.429-14.33-14.33v-39.118
			c0-7.901,6.429-14.33,14.33-14.33h87.53c7.901,0,14.33,6.429,14.33,14.33v39.118C135.556,153.333,129.127,159.762,121.226,159.762
			z"/>
		<path style="fill:#333333;" d="M48.413,169.445H19.365v29.048h29.048C48.413,198.493,48.413,169.445,48.413,169.445z
			 M38.73,188.81h-9.683v-9.683h9.683V188.81z"/>
		<path style="fill:#333333;" d="M91.984,169.445H62.937v29.048h29.048L91.984,169.445L91.984,169.445z M82.302,188.81h-9.683
			v-9.683h9.683V188.81z"/>
		<path style="fill:#333333;" d="M135.556,169.445h-29.048v29.048h29.048V169.445z M125.873,188.81h-9.683v-9.683h9.683V188.81z"/>
		<path style="fill:#333333;" d="M48.413,208.175H19.365v29.048h29.048C48.413,237.223,48.413,208.175,48.413,208.175z
			 M38.73,227.54h-9.683v-9.683h9.683V227.54z"/>
		<path style="fill:#333333;" d="M91.984,208.175H62.937v29.048h29.048L91.984,208.175L91.984,208.175z M82.302,227.54h-9.683
			v-9.683h9.683V227.54z"/>
		<path style="fill:#333333;" d="M135.556,208.175h-29.048v29.048h29.048V208.175z M125.873,227.54h-9.683v-9.683h9.683V227.54z"/>
		<path style="fill:#333333;" d="M19.365,275.953h29.048v-29.048H19.365V275.953z M29.048,256.588h9.683v9.683h-9.683V256.588z"/>
		<path style="fill:#333333;" d="M62.937,275.953h29.048v-29.048H62.937V275.953z M72.619,256.588h9.683v9.683h-9.683V256.588z"/>
		<path style="fill:#333333;" d="M106.508,275.953h29.048v-29.048h-29.048C106.508,246.905,106.508,275.953,106.508,275.953z
			 M116.191,256.588h9.683v9.683h-9.683V256.588z"/>
		<path style="fill:#333333;" d="M286.507,67.778H154.921v-6.909c0-9.537-7.761-17.298-17.298-17.298h-11.75v9.683h11.75
			c4.197,0,7.615,3.418,7.615,7.615v6.909v111.35V277.3c0,7.267-5.911,13.178-13.178,13.178H22.86
			c-7.267,0-13.178-5.911-13.178-13.178V60.869c0-4.197,3.418-7.615,7.615-7.615h11.75v-9.683h-11.75
			C7.761,43.572,0,51.332,0,60.869v216.43c0,12.607,10.254,22.861,22.861,22.861h109.205c12.602,0,22.856-10.254,22.856-22.861
			v-98.172h131.586c7.528,0,13.652-6.129,13.652-13.652V81.43C300.16,73.907,294.031,67.778,286.507,67.778z M286.507,77.461
			c2.188,0,3.97,1.782,3.97,3.97v5.713H154.921v-9.683H286.507z M286.507,169.445H154.921V96.826h135.556v68.649
			C290.477,167.663,288.696,169.445,286.507,169.445z"/>
		<polygon style="fill:#F9BA48;" points="33.889,72.619 24.206,72.619 24.206,0 130.715,0 130.715,72.619 121.032,72.619 		"/>
		<rect x="19.365" y="67.778" style="fill:#333333;" width="116.191" height="9.683"/>
		<rect x="43.572" y="19.365" style="fill:#333333;" width="67.778" height="9.683"/>
		<rect x="67.778" y="38.73" style="fill:#333333;" width="43.572" height="9.683"/>
		<path style="fill:#333333;" d="M256.588,111.35c-4.43,0-8.53,1.283-12.103,3.37c-3.573-2.087-7.673-3.37-12.103-3.37
			c-13.347,0-24.206,10.859-24.206,24.206s10.859,24.206,24.206,24.206c4.43,0,8.53-1.283,12.103-3.37
			c3.573,2.087,7.673,3.37,12.103,3.37c13.347,0,24.206-10.859,24.206-24.206S269.936,111.35,256.588,111.35z M244.485,143.554
			c-1.525-2.295-2.421-5.04-2.421-7.998s0.896-5.703,2.421-7.998c1.525,2.295,2.421,5.04,2.421,7.998
			S246.01,141.259,244.485,143.554z M217.858,135.556c0-8.007,6.516-14.524,14.524-14.524c1.525,0,2.973,0.3,4.352,0.741
			c-2.726,3.917-4.352,8.656-4.352,13.783s1.627,9.867,4.352,13.783c-1.38,0.441-2.827,0.741-4.352,0.741
			C224.374,150.08,217.858,143.563,217.858,135.556z M256.588,150.08c-1.525,0-2.973-0.3-4.352-0.741
			c2.726-3.917,4.352-8.656,4.352-13.783s-1.627-9.867-4.352-13.783c1.38-0.441,2.827-0.741,4.352-0.741
			c8.008,0,14.524,6.516,14.524,14.524S264.596,150.08,256.588,150.08z"/>
	</g>
</g>
<g>
</g>
<g>
</g>
<g>
</g>
<g>
</g>
<g>
</g>
<g>
</g>
<g>
</g>
<g>
</g>
<g>
</g>
<g>
</g>
<g>
</g>
<g>
</g>
<g>
</g>
<g>
</g>
<g>
</g>
</svg>
