<?xml version="1.0" encoding="iso-8859-1"?>
<!-- Generator: Adobe Illustrator 19.0.0, SVG Export Plug-In . SVG Version: 6.00 Build 0)  -->
<svg version="1.1" id="Layer_1" xmlns="http://www.w3.org/2000/svg" xmlns:xlink="http://www.w3.org/1999/xlink" x="0px" y="0px"
	 viewBox="0 0 300.16 300.16" style="enable-background:new 0 0 300.16 300.16;" xml:space="preserve">
<g>
	<g>
		<path style="fill:#333333;" d="M0,24.206v232.382h14.524v11.164c0,4.522,3.679,8.201,8.201,8.201h51.376
			c4.522,0,8.201-3.679,8.201-8.201v-11.164h135.556v11.164c0,4.522,3.679,8.201,8.201,8.201h51.376
			c4.522,0,8.201-3.679,8.201-8.201v-11.164h14.524v-38.73v-48.413V111.35V62.937v-38.73L0,24.206L0,24.206z M72.619,266.271H24.206
			v-9.683h48.413C72.619,256.588,72.619,266.271,72.619,266.271z M275.953,266.271H227.54v-9.683h48.413V266.271z M263.836,101.667
			c-1.327,0-2.406-1.08-2.406-2.406v-24.24c0-1.322,1.08-2.401,2.406-2.401h26.642v29.048L263.836,101.667L263.836,101.667z
			 M271.112,62.937h-7.276c-6.666,0-12.089,5.422-12.089,12.089v24.24c0,6.662,5.422,12.084,12.089,12.084h7.276v58.095h-7.276
			c-6.666,0-12.089,5.422-12.089,12.089v24.24c0,6.662,5.422,12.084,12.089,12.084h7.276v9.683H29.048V53.254h242.064V62.937z
			 M263.836,208.175c-1.327,0-2.406-1.08-2.406-2.406v-24.24c0-1.322,1.08-2.401,2.406-2.401h26.642v29.048L263.836,208.175
			L263.836,208.175z M290.477,169.445h-9.683V111.35h9.683V169.445z M280.795,62.937V43.572H19.365v193.651h261.429v-19.365h9.683
			v29.048h-4.841h-67.778H82.302H14.524H9.683V33.889h280.795v29.048H280.795z"/>
		<path style="fill:#F9BA48;" d="M217.858,198.493H63.334c-8.453,0-15.492-6.042-16.746-14.364
			c-1.375-9.136-3.016-24.139-3.016-43.731s1.641-34.596,3.016-43.736c1.254-8.317,8.293-14.359,16.746-14.359h154.524V198.493z"/>
		<path style="fill:#333333;" d="M96.826,106.508c-18.687,0-33.889,15.202-33.889,33.889s15.202,33.889,33.889,33.889
			s33.889-15.202,33.889-33.889S115.513,106.508,96.826,106.508z M81.803,121.57c2.014-1.607,4.251-2.91,6.715-3.815l23.33,41.475
			c-2.014,1.607-4.251,2.91-6.715,3.815L81.803,121.57z M121.032,140.397c0,3.873-1.002,7.489-2.624,10.738l-19.539-34.741
			C111.243,117.45,121.032,127.747,121.032,140.397z M72.619,140.397c0-3.873,1.002-7.489,2.624-10.738l19.54,34.741
			C82.408,163.345,72.619,153.048,72.619,140.397z"/>
		<rect x="140.397" y="106.508" style="fill:#333333;" width="24.206" height="9.683"/>
		<rect x="174.286" y="106.508" style="fill:#333333;" width="24.206" height="9.683"/>
		<rect x="140.397" y="125.873" style="fill:#333333;" width="24.206" height="9.683"/>
		<rect x="174.286" y="125.873" style="fill:#333333;" width="24.206" height="9.683"/>
		<rect x="140.397" y="145.239" style="fill:#333333;" width="24.206" height="9.683"/>
		<rect x="174.286" y="145.239" style="fill:#333333;" width="24.206" height="9.683"/>
		<rect x="140.397" y="164.604" style="fill:#333333;" width="24.206" height="9.683"/>
		<rect x="174.286" y="164.604" style="fill:#333333;" width="24.206" height="9.683"/>
	</g>
</g>
<g>
</g>
<g>
</g>
<g>
</g>
<g>
</g>
<g>
</g>
<g>
</g>
<g>
</g>
<g>
</g>
<g>
</g>
<g>
</g>
<g>
</g>
<g>
</g>
<g>
</g>
<g>
</g>
<g>
</g>
</svg>
