<?xml version="1.0" encoding="iso-8859-1"?>
<!-- Generator: Adobe Illustrator 19.0.0, SVG Export Plug-In . SVG Version: 6.00 Build 0)  -->
<svg version="1.1" id="Layer_1" xmlns="http://www.w3.org/2000/svg" xmlns:xlink="http://www.w3.org/1999/xlink" x="0px" y="0px"
	 viewBox="0 0 300.16 300.16" style="enable-background:new 0 0 300.16 300.16;" xml:space="preserve">
<g>
	<g>
		<path style="fill:#F9BA48;" d="M275.953,70.199c-8.007,0-14.524-6.516-14.524-14.524v-4.841H38.73v4.841
			c0,8.007-6.516,14.524-14.524,14.524h-4.841v96.826h4.841c8.007,0,14.524,6.516,14.524,14.524v4.841h140.397v-14.524h9.683
			v-19.366c0-26.738,21.674-48.413,48.413-48.413c19.205,0,35.743,11.208,43.572,27.416V70.199H275.953z M150.08,162.184
			c-24.066,0-43.572-19.506-43.572-43.572S126.014,75.04,150.08,75.04s43.572,19.506,43.572,43.572S174.146,162.184,150.08,162.184z
			"/>
		<path style="fill:#333333;" d="M0,31.468v174.286h174.286v62.937H300.16v-96.826v-4.841V31.468H0z M9.683,196.073V41.151h280.795
			v111.349c0-29.362-23.892-53.254-53.254-53.254c-15.332,0-29.125,6.55-38.851,16.949c-1.273-25.572-22.415-45.997-48.292-45.997
			c-26.695,0-48.413,21.718-48.413,48.413s21.718,48.413,48.413,48.413c13.188,0,25.15-5.316,33.889-13.899v13.899h-9.683v29.048
			L9.683,196.073L9.683,196.073z M280.795,167.025h-9.683v-14.524c0-18.687-15.206-33.889-33.889-33.889
			s-33.889,15.202-33.889,33.889v14.524h-9.683v-14.524c0-24.022,19.544-43.572,43.572-43.572s43.572,19.549,43.572,43.572
			L280.795,167.025L280.795,167.025z M261.429,167.025h-48.413v-14.524c0-13.347,10.859-24.206,24.206-24.206
			s24.206,10.859,24.206,24.206v14.524H261.429z M150.08,157.342c-21.355,0-38.73-17.375-38.73-38.73s17.375-38.73,38.73-38.73
			s38.73,17.375,38.73,38.73S171.435,157.342,150.08,157.342z M183.969,259.009v-9.683h14.524v-9.683h-14.524v-43.572h14.524v-9.683
			h-14.524v-9.683h19.365h67.778h19.365v9.683h-14.524v9.683h14.524v43.572h-14.524v9.683h14.524v9.683H183.969z"/>
		<path style="fill:#333333;" d="M237.223,186.39c-10.68,0-19.365,8.685-19.365,19.365c0,4.677,1.738,9.208,4.841,12.733v30.839
			h29.048v-30.839c3.103-3.524,4.841-8.056,4.841-12.733C256.588,195.076,247.903,186.39,237.223,186.39z M243.662,212.915
			l-1.598,1.443v25.286h-9.683v-25.286l-1.598-1.443c-2.096-1.883-3.244-4.43-3.244-7.16c0-5.34,4.343-9.683,9.683-9.683
			s9.683,4.343,9.683,9.683C246.906,208.486,245.758,211.033,243.662,212.915z"/>
	</g>
</g>
<g>
</g>
<g>
</g>
<g>
</g>
<g>
</g>
<g>
</g>
<g>
</g>
<g>
</g>
<g>
</g>
<g>
</g>
<g>
</g>
<g>
</g>
<g>
</g>
<g>
</g>
<g>
</g>
<g>
</g>
</svg>
