<?xml version="1.0" encoding="iso-8859-1"?>
<!-- Generator: Adobe Illustrator 19.0.0, SVG Export Plug-In . SVG Version: 6.00 Build 0)  -->
<svg version="1.1" id="Layer_1" xmlns="http://www.w3.org/2000/svg" xmlns:xlink="http://www.w3.org/1999/xlink" x="0px" y="0px"
	 viewBox="0 0 300.159 300.159" style="enable-background:new 0 0 300.159 300.159;" xml:space="preserve">
<g>
	<g>
		<path style="fill:#F9BA48;" d="M152.5,82.302c-50.8,0-91.984,41.185-91.984,91.984s41.185,91.984,91.984,91.984
			s91.984-41.185,91.984-91.984S203.3,82.302,152.5,82.302z M152.5,183.969c-5.35,0-9.683-4.333-9.683-9.683
			c0-5.35,4.333-9.683,9.683-9.683s9.683,4.333,9.683,9.683C162.183,179.636,157.85,183.969,152.5,183.969z"/>
		<path style="fill:#333333;" d="M259.009,84.306l14.524,14.524l26.211-26.211l-55.258-55.258l-26.211,26.211l14.524,14.524
			l-11.111,11.111c-14.747-9.741-31.643-16.48-49.822-19.302V38.73h19.365V0H113.77v38.73h19.365v11.174
			c-19.375,3.006-37.288,10.467-52.697,21.268L67.362,58.095l14.524-14.524l-26.211-26.21L0.416,72.619L26.627,98.83l14.524-14.524
			l12.365,12.365c-16.819,21.403-26.888,48.345-26.888,77.615c0,69.41,56.464,125.873,125.873,125.873
			s125.873-56.464,125.873-125.873c0-30.505-10.912-58.502-29.033-80.312L259.009,84.306z M231.965,43.572l12.52-12.52
			l41.567,41.567l-12.52,12.52l-7.678-7.678l-26.21-26.211L231.965,43.572z M239.644,64.941l12.52,12.52l-9.315,9.315
			c-4.115-4.246-8.526-8.201-13.197-11.842L239.644,64.941z M123.453,29.048V9.683h58.095v19.365h-9.683h-38.73H123.453z
			 M142.818,48.413V38.73h19.365v9.683H142.818z M26.627,85.139l-12.52-12.52l41.567-41.567l12.52,12.52l-7.678,7.678L34.305,77.461
			L26.627,85.139z M47.996,77.461l12.52-12.52l12.123,12.123c-4.565,3.757-8.855,7.833-12.854,12.186L47.996,77.461z M152.5,290.477
			c-64.065,0-116.191-52.126-116.191-116.191S88.436,58.095,152.5,58.095s116.191,52.126,116.191,116.191
			S216.565,290.477,152.5,290.477z"/>
		<path style="fill:#333333;" d="M159.762,116.191h-2.421v-14.524h-9.683v14.524h-2.421c-11.048,0-20.764,5.737-26.38,14.374
			l-16.025-17.627l-7.165,6.516l19.002,20.9c-0.571,2.343-0.9,4.783-0.9,7.305c0,15.09,10.68,27.721,24.879,30.762
			c1.791,5.989,7.286,10.389,13.851,10.389c5.945,0,11.053-3.597,13.299-8.724c9.063,2.634,15.749,10.922,15.749,20.827
			c0,12.011-9.775,21.786-21.786,21.786h-14.524c-12.011,0-21.786-9.775-21.786-21.786v-2.421h-9.683v2.421
			c0,17.351,14.117,31.468,31.468,31.468h2.421v14.524h9.683v-14.524h2.421c17.351,0,31.468-14.117,31.468-31.468
			c0-15.09-10.68-27.721-24.879-30.762c-1.791-5.989-7.286-10.389-13.851-10.389c-2.116,0-4.11,0.479-5.926,1.293l-20.837-22.919
			c3.549-7.233,10.917-12.263,19.501-12.263h14.524c12.011,0,21.786,9.775,21.786,21.786v2.421h9.683v-2.421
			C191.231,130.308,177.114,116.191,159.762,116.191z M123.719,150.312l15.87,17.458c-0.126,0.242-0.281,0.465-0.392,0.717
			C130.966,166.095,124.794,159.022,123.719,150.312z M157.342,174.286c0,2.672-2.169,4.841-4.841,4.841s-4.841-2.169-4.841-4.841
			s2.169-4.841,4.841-4.841S157.342,171.614,157.342,174.286z"/>
	</g>
</g>
<g>
</g>
<g>
</g>
<g>
</g>
<g>
</g>
<g>
</g>
<g>
</g>
<g>
</g>
<g>
</g>
<g>
</g>
<g>
</g>
<g>
</g>
<g>
</g>
<g>
</g>
<g>
</g>
<g>
</g>
</svg>
