<?xml version="1.0" encoding="iso-8859-1"?>
<!-- Generator: Adobe Illustrator 19.0.0, SVG Export Plug-In . SVG Version: 6.00 Build 0)  -->
<svg version="1.1" id="Layer_1" xmlns="http://www.w3.org/2000/svg" xmlns:xlink="http://www.w3.org/1999/xlink" x="0px" y="0px"
	 viewBox="0 0 300.16 300.16" style="enable-background:new 0 0 300.16 300.16;" xml:space="preserve">
<g>
	<g>
		<path style="fill:#F9BA48;" d="M246.906,33.889c-5.34,0-9.683-4.343-9.683-9.683v-4.841h-77.461v4.841
			c0,5.34-4.343,9.683-9.683,9.683h-4.841v106.508h106.508V33.889H246.906z M169.445,135.556c0-16.044,13.004-29.048,29.048-29.048
			s29.048,13.004,29.048,29.048H169.445z"/>
		<path style="fill:#333333;" d="M275.953,111.35h-4.841V0H125.873v111.35h-4.841c-13.347,0-24.206,10.859-24.206,24.206v48.413
			H18.073C8.109,183.969,0,192.078,0,202.041v80.041c0,9.968,8.109,18.077,18.073,18.077h127.166h1.293h129.422
			c13.347,0,24.206-10.859,24.206-24.206v-24.206v-48.413v-29.048v-38.73C300.16,122.209,289.301,111.35,275.953,111.35z
			 M135.556,9.683h125.873v121.032h-29.435c-2.363-16.397-16.465-29.048-33.502-29.048s-31.139,12.65-33.502,29.048h-29.435
			L135.556,9.683L135.556,9.683z M222.21,130.715h-47.44c2.246-11.033,12.031-19.365,23.717-19.365S219.964,119.681,222.21,130.715z
			 M121.032,121.032h4.841v9.683h-4.841v9.683h154.921v-9.683h-4.841v-9.683h4.841c8.008,0,14.524,6.516,14.524,14.524v19.491
			c-4.057-3.074-9.053-4.967-14.524-4.967H121.032c-8.007,0-14.524-6.516-14.524-14.524S113.025,121.032,121.032,121.032z
			 M18.073,193.651h128.454c4.628,0,8.395,3.767,8.395,8.39v49.705H9.683v-49.705C9.683,197.418,13.449,193.651,18.073,193.651z
			 M154.921,271.112H9.683v-9.683h145.239L154.921,271.112L154.921,271.112z M145.239,290.477H18.073c-4.623,0-8.39-3.767-8.39-8.39
			v-1.293h145.239v1.293c0,4.623-3.767,8.39-8.39,8.39H145.239z M290.477,242.064h-67.778c-8.007,0-14.524-6.516-14.524-14.524
			s6.516-14.524,14.524-14.524h67.778V242.064z M290.477,203.334h-67.778c-13.347,0-24.206,10.859-24.206,24.206
			s10.859,24.206,24.206,24.206h67.778v24.206c0,8.008-6.516,14.524-14.524,14.524H162.44c1.336-2.517,2.164-5.345,2.164-8.39
			V202.04c0-9.963-8.109-18.073-18.073-18.073h-40.023v-29.174c4.057,3.074,9.053,4.967,14.524,4.967h154.921
			c8.008,0,14.524,6.516,14.524,14.524V203.334z"/>
		<circle style="fill:#333333;" cx="222.699" cy="227.54" r="4.841"/>
		<rect x="19.365" y="203.334" style="fill:#333333;" width="33.889" height="9.683"/>
		<rect x="29.048" y="222.699" style="fill:#333333;" width="24.206" height="9.683"/>
		<path style="fill:#333333;" d="M48.413,67.778H38.73c-2.668,0-4.841-2.174-4.841-4.841h-9.683c0,8.007,6.516,14.524,14.524,14.524
			v4.841h9.683v-4.841c8.007,0,14.524-6.516,14.524-14.524S56.42,48.413,48.413,48.413H38.73c-2.668,0-4.841-2.174-4.841-4.841
			s2.174-4.841,4.841-4.841h9.683c2.668,0,4.841,2.174,4.841,4.841h9.683c0-8.007-6.516-14.524-14.524-14.524v-4.841H38.73v4.841
			c-8.007,0-14.524,6.516-14.524,14.524s6.516,14.524,14.524,14.524h9.683c2.668,0,4.841,2.174,4.841,4.841
			C53.254,65.604,51.08,67.778,48.413,67.778z"/>
		<path style="fill:#333333;" d="M82.505,72.702c2.944-5.863,4.638-12.457,4.638-19.447c0-24.022-19.549-43.572-43.572-43.572
			S0,29.232,0,53.254c0,6.991,1.694,13.585,4.638,19.447C1.651,78.71,0,85.294,0,91.984c0,6.991,1.694,13.585,4.638,19.447
			C1.651,117.44,0,124.024,0,130.715c0,24.022,19.549,43.572,43.572,43.572s43.572-19.549,43.572-43.572
			c0-6.691-1.651-13.275-4.638-19.283c2.944-5.863,4.638-12.457,4.638-19.447C87.143,85.294,85.492,78.71,82.505,72.702z
			 M43.572,19.365c18.687,0,33.889,15.202,33.889,33.889S62.259,87.143,43.572,87.143S9.683,71.941,9.683,53.254
			S24.884,19.365,43.572,19.365z M43.572,96.826h4.841c2.668,0,4.841,2.174,4.841,4.841c0,2.668-2.174,4.841-4.841,4.841H38.73
			c-2.668,0-4.841-2.174-4.841-4.841h-9.683c0,8.007,6.516,14.524,14.524,14.524v4.841h9.683v-4.841
			c8.007,0,14.524-6.516,14.524-14.524c0-3.05-0.954-5.877-2.566-8.216c6.013-2.522,11.314-6.381,15.603-11.169
			c0.949,3.147,1.486,6.41,1.486,9.702c0,18.687-15.202,33.889-33.889,33.889S9.683,110.672,9.683,91.984
			c0-3.292,0.537-6.555,1.486-9.702C19.157,91.186,30.703,96.826,43.572,96.826z M77.461,130.715
			c0,18.687-15.202,33.889-33.889,33.889S9.683,149.402,9.683,130.715c0-3.292,0.537-6.555,1.486-9.702
			c7.988,8.903,19.535,14.543,32.403,14.543h4.841c2.668,0,4.841,2.174,4.841,4.841c0,2.668-2.174,4.841-4.841,4.841H38.73
			c-2.668,0-4.841-2.174-4.841-4.841h-9.683c0,8.007,6.516,14.524,14.524,14.524v4.841h9.683v-4.841
			c8.007,0,14.524-6.516,14.524-14.524c0-3.05-0.954-5.877-2.566-8.216c6.013-2.522,11.314-6.381,15.603-11.169
			C76.923,124.16,77.461,127.423,77.461,130.715z"/>
	</g>
</g>
<g>
</g>
<g>
</g>
<g>
</g>
<g>
</g>
<g>
</g>
<g>
</g>
<g>
</g>
<g>
</g>
<g>
</g>
<g>
</g>
<g>
</g>
<g>
</g>
<g>
</g>
<g>
</g>
<g>
</g>
</svg>
